<svg version="1.1" xmlns="http://www.w3.org/2000/svg" style="display: block;" viewBox="0 0 2048 2048" width="600" height="600" preserveAspectRatio="none">
<path transform="translate(0,0)" fill="rgb(18,18,18)" d="M 0 0 L 2048 0 L 2048 2048 L 0 2048 L 0 0 z"/>
<path transform="translate(0,0)" fill="rgb(254,139,31)" d="M 250.959 1599.65 C 126.331 1444.5 55.1674 1266.52 47.9145 1067.23 C 47.5843 1058.15 48.8891 1007.92 46.6006 1003.71 L 42.4889 1006.61 L 41.512 1005.83 C 42.3174 1004 47.5737 994.04 47.5619 993.432 C 46.6059 943.827 54.3483 896.19 62.0038 847.349 C 62.8847 841.728 71.6162 797.595 71.2239 796.287 L 68.6427 793.978 L 69.3185 792.445 L 72.9084 792.252 C 74.9342 788.679 77.8422 774.003 79.176 769.116 C 129.362 585.247 238.69 415.91 381.25 289.97 C 430.138 247.434 483.154 209.889 539.508 177.895 C 568.8 161.251 599.013 146.281 630 133.057 C 640.067 128.702 669.021 118.033 676.437 114.007 L 669.445 111.703 L 669.167 110.548 C 674.802 108.702 675.159 109.397 680.099 112.548 C 684.135 112.504 722.132 98.1861 729.39 96.1432 C 748.652 90.7214 768.639 85.2145 788.111 80.1227 C 901.082 51.6471 1018.22 43.4916 1134.05 56.0372 C 1137.86 56.4835 1145.92 57.9109 1149.38 57.2749 C 1151.21 56.9382 1151.4 54.0838 1155.44 54.9078 C 1155.96 56.5706 1156.45 58.2407 1156.92 59.9178 C 1157.06 59.973 1210.99 68.2855 1213.68 68.3348 L 1215.27 67.2515 C 1212.89 65.0278 1211.68 64.9824 1208.5 63.7349 L 1208.62 62.6115 C 1211.72 61.4657 1213.02 61.9693 1216.27 62.4767 C 1217.89 64.2386 1222.07 70.4662 1223.69 70.8138 C 1243.73 75.099 1263.88 80.0227 1283.71 85.0169 C 1286.67 85.7642 1289.35 80.7341 1295.84 82.6211 C 1294.41 84.7381 1292.52 85.1218 1290.08 86.1 L 1289.56 86.7833 C 1293.55 88.8733 1323 96.9436 1330.82 99.5024 C 1356.71 107.961 1382.28 117.379 1407.48 127.739 C 1413.97 130.367 1431.66 139.995 1435.95 139.259 L 1438.45 137.084 C 1440.38 139.267 1439.72 138.424 1440.7 141.425 C 1451.87 148.815 1467.67 154.977 1479.96 161.774 C 1513.52 180.321 1546.31 198.416 1577.82 220.415 C 1635.02 260.348 1688.77 304.617 1737.99 354.101 C 1856.17 480.257 1944.76 641.065 1980.34 810.691 C 1991.29 862.908 1999.58 914.611 2000.85 967.939 C 2000.97 972.932 2004.48 978.759 2004.98 983.894 C 2005.09 990.296 2002.69 1002.42 2003.26 1008.67 C 2004.72 1024.25 2004.99 1039.71 2005.23 1055.34 C 2005.31 1060.89 2000.64 1070.5 2000.38 1076.78 C 1993.95 1228.51 1944.42 1388.32 1860.94 1514.49 C 1814.32 1586.35 1758.52 1651.82 1694.95 1709.24 C 1579.41 1814.06 1406.73 1903.85 1253.59 1934.78 C 1210.63 1943.82 1167.12 1950.06 1123.35 1953.43 C 1120.86 1957.69 1124.25 1959.04 1122.02 1962.09 L 1120.48 1961.55 L 1119.61 1956.35 C 1113.16 1952.21 1062.68 1958.34 1053.08 1957.23 C 1017.88 1953.16 977.26 1958.12 942.844 1955.32 C 764.093 1940.77 589.817 1882.65 443.495 1777.8 C 410.669 1754.42 387.301 1734.11 356.453 1709.16 L 354.716 1711.32 C 358.255 1714.38 359.1 1714.77 361.146 1718.8 L 359.683 1718.73 C 351.459 1712.77 347.543 1709.11 341.163 1701.17 L 341.152 1699.55 L 343.753 1696.94 C 315.643 1670.79 281.015 1636.14 257.114 1606.86 L 256.074 1610.99 C 250.979 1610.08 247.02 1604.64 244.952 1600.18 L 250.959 1599.65 z"/>
<path transform="translate(0,0)" fill="rgb(195,107,14)" d="M 343.753 1696.94 C 346.19 1699.25 354.746 1707.03 356.453 1709.16 L 354.716 1711.32 C 358.255 1714.38 359.1 1714.77 361.146 1718.8 L 359.683 1718.73 C 351.459 1712.77 347.543 1709.11 341.163 1701.17 L 341.152 1699.55 L 343.753 1696.94 z"/>
<path transform="translate(0,0)" fill="rgb(22,12,3)" d="M 343.753 1696.94 C 346.19 1699.25 354.746 1707.03 356.453 1709.16 L 354.716 1711.32 C 351.471 1707.94 345.667 1700.41 341.163 1701.17 L 341.152 1699.55 L 343.753 1696.94 z"/>
<path transform="translate(0,0)" fill="rgb(22,12,3)" d="M 250.959 1599.65 L 257.114 1606.86 L 256.074 1610.99 C 250.979 1610.08 247.02 1604.64 244.952 1600.18 L 250.959 1599.65 z"/>
<path transform="translate(0,0)" fill="rgb(195,107,14)" d="M 244.952 1600.18 C 250.288 1602.58 253.328 1605.76 256.074 1610.99 C 250.979 1610.08 247.02 1604.64 244.952 1600.18 z"/>
<path transform="translate(0,0)" fill="rgb(18,18,18)" d="M 1622.97 1664.74 C 1609.24 1679.77 1577.92 1702.5 1561.27 1715.15 C 1442.37 1805.45 1306.95 1854.24 1160.03 1875.78 C 914.334 1910.75 664.791 1846.97 466.01 1698.39 C 287.83 1565.49 163.164 1369.8 131.055 1148.58 C 97.213 917.73 156.162 682.875 295.011 495.374 C 440.695 298.386 658.93 167.637 901.347 132.106 C 1137.89 100.764 1377.27 163.788 1567.72 307.55 C 1758.81 451.324 1885.36 655.997 1919.29 893.942 C 1948.97 1102.08 1902.7 1337.26 1775.03 1507.09 C 1775.14 1501.58 1775.88 1488.43 1773.41 1484.01 C 1775.86 1477.89 1781.59 1467.12 1784.62 1460.83 C 1792.06 1445.67 1799 1430.28 1805.42 1414.66 C 1836.31 1337.81 1845.92 1275.47 1853.49 1194.19 C 1848.14 1204.92 1843.12 1220.82 1837.63 1232.98 C 1799.73 1315.15 1742.38 1386.86 1670.54 1441.89 C 1659.11 1450.63 1635.36 1467.5 1622.65 1472.34 L 1621.27 1470.99 L 1620.76 1471.71 C 1604.14 1495.69 1591.69 1522.48 1573.98 1547.44 C 1482.48 1676.44 1367.7 1758.7 1218.63 1809.61 C 1200.78 1813.57 1182.46 1818.96 1164.55 1821.82 C 1175.21 1821.79 1181.94 1823.09 1192.8 1821.97 C 1200.37 1822.04 1207.18 1821.48 1214.63 1821.03 C 1339.21 1813.54 1462.73 1772.24 1567.48 1704.59 C 1585.87 1692.71 1603.19 1676.63 1621.69 1665.5 L 1622.97 1664.74 z"/>
<path transform="translate(0,0)" fill="rgb(254,251,239)" d="M 937.485 882.017 C 941.92 882.421 946.38 882.488 950.825 882.217 C 1070.59 875.933 1212.82 818.202 1298.95 733.9 C 1315.83 716.845 1329.81 697.318 1344.1 678.155 C 1348.51 672.247 1354.96 660.457 1359.35 656.046 C 1387.16 716.947 1426.4 771.947 1474.94 818.067 C 1501.99 843.967 1530.82 867.824 1555.65 896.01 C 1639.09 990.727 1679.72 1104.9 1676.88 1230.95 C 1674.95 1316.67 1659.36 1393.01 1621.27 1470.99 L 1620.76 1471.71 C 1604.14 1495.69 1591.69 1522.48 1573.98 1547.44 C 1482.48 1676.44 1367.7 1758.7 1218.63 1809.61 C 1200.78 1813.57 1182.46 1818.96 1164.55 1821.82 C 1133.45 1825.16 1104.65 1832.79 1072.69 1834.95 C 798.775 1853.47 496.967 1682.02 405.107 1416.7 C 366.19 1304.29 361.306 1168.85 413.552 1059.61 C 465.166 951.686 560.481 890.661 670.124 852.89 C 707.986 855.264 753.217 848.283 790.586 842.059 C 840.651 833.72 889.839 815.919 936.098 795.507 C 944.511 791.794 971.033 777.036 977.764 776.202 C 952.49 817.229 914.212 859.817 873.491 885.43 C 895.122 883.082 915.526 884.854 937.485 882.017 z"/>
<path transform="translate(0,0)" fill="rgb(18,18,18)" d="M 1185.09 948.947 L 1368.07 948.849 C 1374.52 967.402 1386.3 994.025 1394.03 1012.84 L 1439.09 1123.23 L 1588.13 1490.59 C 1572.93 1489.54 1545.9 1490.4 1530.1 1490.45 L 1425.52 1490.7 C 1420.29 1475.27 1412.73 1458.43 1406.64 1443.14 C 1402.41 1432.55 1396.79 1417.12 1391.64 1407.55 C 1388.39 1405.65 1388.62 1406.32 1384.25 1406.26 L 1164.74 1406.19 C 1155.77 1432.99 1145.52 1464.07 1138.14 1490.96 C 1112.99 1489.35 1077.94 1490.64 1051.93 1490.43 C 1032.81 1490.28 996.173 1489.37 978.859 1490.83 C 982.718 1475.8 995.037 1445.55 1000.89 1430.28 L 1042.41 1322.37 C 1089.93 1198.85 1139.54 1072.93 1185.09 948.947 z"/>
<path transform="translate(0,0)" fill="rgb(254,139,31)" d="M 1277.18 1093.46 C 1279.82 1095.69 1293.71 1138.76 1296.23 1145.72 L 1345.33 1282.59 C 1323.33 1283.03 1300.06 1282.7 1277.97 1282.71 L 1207.93 1282.87 C 1231.88 1220.06 1254.97 1156.91 1277.18 1093.46 z"/>
<path transform="translate(0,0)" fill="rgb(18,18,18)" d="M 709.665 946.41 C 731.322 945.139 751.902 946.133 773.413 947.435 C 848.425 951.976 904.129 969.362 970.238 1003.16 C 951.069 1040.28 928.118 1079.69 907.618 1116.43 C 867.517 1086.2 791.287 1070.94 741.543 1069.28 C 721.542 1068.62 677.55 1071.46 662.847 1087.58 C 638.42 1114.36 680.328 1136.03 703.092 1138.88 C 814.255 1162.93 984.943 1183.24 983.154 1333.07 C 983.049 1372.19 966.948 1409.55 938.591 1436.49 C 886.521 1486.78 804.653 1499.27 734.877 1497.84 C 638.45 1492.25 562.509 1470.7 483.866 1413.7 C 487.282 1405.24 496.207 1391.74 501.217 1383.63 L 527.2 1341.15 C 532.135 1333 545.414 1308.74 550.004 1303.47 C 604.684 1347.6 687.955 1369.45 758.482 1368.1 C 773.358 1367.82 796.221 1362.37 806.359 1350.53 C 811.546 1344.58 814.037 1336.75 813.242 1328.89 C 809.798 1292.52 741.904 1286.3 714.953 1280.34 C 685.704 1273.87 655.791 1268.57 627.11 1260.43 C 558.754 1241.04 496.063 1196.62 492.318 1119.89 C 486.853 1035.06 549.505 981.891 625.181 959.809 C 653.338 951.592 680.007 948.597 709.665 946.41 z"/>
<path transform="translate(0,0)" fill="rgb(254,139,31)" d="M 1323.08 512.637 C 1327.81 549.7 1333.76 581.966 1345.27 617.811 C 1349.43 630.798 1355.36 643.384 1359.35 656.046 C 1354.96 660.457 1348.51 672.247 1344.1 678.155 C 1329.81 697.318 1315.83 716.845 1298.95 733.9 C 1212.82 818.202 1070.59 875.933 950.825 882.217 C 946.38 882.488 941.92 882.421 937.485 882.017 C 995.252 866.588 1030.81 857.157 1084.98 827.975 C 1185.14 774.027 1258.68 691.191 1300.51 585.339 C 1310.95 558.924 1315.31 539.536 1323.08 512.637 z"/>
<path transform="translate(0,0)" fill="rgb(254,139,31)" d="M 670.124 852.89 C 680.733 847.262 697.332 842.074 708.974 837.891 L 772.19 814.992 C 873.586 777.796 965.092 729.733 1038.34 648.338 C 1024.96 681.7 1001.29 748.006 977.764 776.202 C 971.033 777.036 944.511 791.794 936.098 795.507 C 889.839 815.919 840.651 833.72 790.586 842.059 C 753.217 848.283 707.986 855.264 670.124 852.89 z"/>
<path transform="translate(0,0)" fill="rgb(18,18,18)" d="M 1773.41 1484.01 C 1775.88 1488.43 1775.14 1501.58 1775.03 1507.09 C 1761.48 1524.66 1738.29 1551.2 1722.66 1566.57 C 1725.18 1562.37 1728.4 1557.72 1731.24 1553.72 C 1747.05 1531.41 1760 1507.82 1773.41 1484.01 z"/>
<path transform="translate(0,0)" fill="rgb(195,107,14)" d="M 41.2384 1068.27 C 43.0452 1068.91 42.3841 1068.62 43.8608 1070.08 C 45.0905 1078.44 44.653 1084.88 43.6817 1093.2 C 39.7827 1089.5 41.1027 1073.63 41.2384 1068.27 z"/>
<path transform="translate(0,0)" fill="rgb(195,107,14)" d="M 42.269 951.808 L 43.7295 953.214 C 45.3524 958.996 44.4123 964.542 43.5471 970.441 L 41.571 967.856 C 40.6266 962.624 40.4193 956.86 42.269 951.808 z"/>
</svg>