<?xml version="1.0" encoding="utf-8"?>
<!DOCTYPE svg PUBLIC "-//W3C//DTD SVG 1.0//EN" "http://www.w3.org/TR/2001/REC-SVG-20010904/DTD/svg10.dtd">
<svg version="1.0" xmlns="http://www.w3.org/2000/svg" width="600px" height="600px" viewBox="0 0 600 600" preserveAspectRatio="xMidYMid meet">
 <g fill="#191719">
  <path d="M 283 550.3 c 0 -4.7 0 -4.7 -3.6 -0.5 -3 3.5 -4.2 4.2 -7.2 4.2 -2 0 -4.9 -0.6 -6.3 -1.4 -1.5 -0.7 -3.2 -1 -3.8 -0.7 -2.9 1.8 -30.3 -4 -49.6 -10.5 -18 -6 -42.1 -16.8 -52.5 -23.5 -2.5 -1.6 -5.2 -3.2 -6 -3.5 -3.6 -1.6 -21.3 -14.4 -30.5 -21.9 -44.3 -36.4 -74.9 -86.4 -85.5 -139.5 -4.3 -21.7 -5.3 -35 -4.7 -61.4 0.7 -30.1 3.7 -49 11.6 -74.1 30.4 -96 117.4 -168.4 218.6 -182 16.5 -2.2 53.7 -2.2 70.5 0 51.9 6.8 98.3 26.7 137.7 59.2 23.5 19.2 48.2 47.4 52.4 59.6 0.7 2 1.9 3.7 2.6 3.7 1.7 0 5.9 6.7 13.3 21 6.9 13.5 8.7 18.1 14.6 35.2 19 55.9 17.4 127.3 -4.1 180 -2.6 6.2 -5.2 12.7 -5.8 14.3 -4.1 10.4 -18.3 32.4 -28.4 44 -6 7 -7.4 8 -10.6 8.3 -3.5 0.3 -3.7 0.2 -3.7 -2.6 0 -1.8 2 -5.9 5.3 -10.8 4.6 -7.1 7.6 -12.8 16.3 -30.4 4.1 -8.3 12.3 -35 12.4 -40 0 -0.8 -2.4 2.2 -5.3 6.6 -7.9 12.1 -14.5 20 -25.5 30.5 -12.8 12.4 -23.9 19.9 -29.3 19.9 -3.7 0 -3.9 -0.2 -3.9 -3 0 -1.6 1.1 -5.4 2.5 -8.5 3.4 -7.9 9 -25.5 11.1 -35.5 1.4 -6.5 1.9 -13 1.9 -28 0 -22.5 -1.8 -33.1 -8.6 -50.5 -8.4 -21.6 -19.5 -37.1 -41.3 -57.9 -8.7 -8.3 -18.7 -18.7 -22.3 -23.1 -12.4 -15.4 -21.7 -33.4 -26.2 -50.9 -1.2 -4.4 -2.2 -8.1 -2.4 -8.3 -0.3 -0.2 -1.4 2.5 -2.7 5.9 -6 16.8 -16.7 32.8 -31.4 47.3 -17.5 17.3 -36.2 28.4 -61.1 36.1 -10.4 3.2 -13.7 3.7 -24.7 4.2 -12.8 0.4 -12.8 0.4 -12.8 -3.2 0 -2 0.5 -3.6 1 -3.6 0.6 0 3 -1.8 5.4 -4 2.4 -2.2 4.8 -4 5.4 -4 0.6 0 1.6 1.6 2.4 3.5 1 3 1.7 3.5 3.7 3.3 2 -0.2 3 -1.4 4.7 -5.8 1.2 -3 2.5 -6.4 2.8 -7.4 0.4 -1.6 0.7 -1.7 2 -0.6 1.4 1.1 1.6 0.4 1.6 -6.4 0 -7.3 0.2 -8 5 -16.4 2.8 -4.8 5 -9.1 5 -9.6 0 -0.4 -2.6 1.3 -5.7 3.7 -9.5 7.3 -23.9 15.8 -25.6 15.1 -0.9 -0.3 -2 0.2 -2.6 1.4 -1.3 2.5 -16.1 9 -41.1 18 -25.6 9.3 -35.9 13.5 -45 18.4 -50.4 27 -70.8 79.5 -54 138.9 12.8 45.5 45.3 83.2 93.5 108.4 19.4 10.2 39.2 16.9 62.5 21.2 12.9 2.4 39 2.4 52 0.1 5.2 -0.9 15.5 -2 22.9 -2.3 39.9 -1.8 80.2 -15.5 111.4 -37.9 5.9 -4.2 8.7 -5.6 11.3 -5.6 3.2 0 3.4 0.2 3.4 3.3 0 3.6 -1.3 4.8 -16.5 15.9 -31.2 22.8 -64.4 36.8 -105 44.3 -18.4 3.3 -32.1 4.5 -53.2 4.5 -18.3 0 -18.3 0 -18.3 -4.7 z  m -20.7 -2.9 c -0.3 -0.8 -0.9 -1.4 -1.3 -1.4 -1.3 0 -2.2 1.9 -1.5 3 0.9 1.4 3.4 0 2.8 -1.6 z "/>
  <path d="M 197.8 440.5 c -17.9 -2.5 -34.3 -8.1 -47.8 -16.1 -10.6 -6.2 -11 -6.7 -11 -10.5 0 -2.5 2.4 -7.4 9.4 -18.9 8.4 -14 9.6 -15.5 12.3 -15.8 2 -0.2 4.4 0.6 6.9 2.3 11.4 7.8 26.9 13.4 43.1 15.5 12 1.5 20.1 -0.3 23.2 -5.2 1.1 -1.7 0.9 -2.4 -1.1 -4.5 -3.7 -4 -6.8 -5.1 -22.5 -8.3 -23.5 -4.9 -34.3 -7.8 -42 -11.6 -9.2 -4.4 -13.3 -7.8 -13.3 -11.1 0 -2.1 -0.2 -2.3 -1.5 -1.3 -1.8 1.5 -3.8 -0.7 -7.9 -8 -5.8 -10.7 -6.2 -29.9 -0.8 -41.4 11.2 -24 43.9 -35.1 89.3 -30.6 17.2 1.8 35 6.8 50.1 14.2 4.9 2.3 3.9 6.3 -6.3 24.6 -8.5 15.3 -9.2 16.2 -12 16.2 -1.6 0 -4 -0.7 -5.2 -1.5 -1.2 -0.8 -5.6 -2.8 -9.7 -4.5 -19 -7.9 -41.9 -9.7 -51.5 -4.1 -7.6 4.4 -0.9 8.6 21 13.2 19.6 4.1 36.3 9.2 45 13.7 9.4 4.9 17.3 12.9 21.6 21.7 3.4 6.9 3.4 7.1 3.4 21 0 13.7 -0.1 14.2 -3.2 20.7 -7.2 15.2 -21.2 25 -42.2 29.4 -10.5 2.2 -35.1 2.7 -47.3 0.9 z  m 78.8 -32.5 c 1.2 -3 2.5 -6.4 2.8 -7.4 0.4 -1.6 0.7 -1.7 2 -0.6 1.4 1.1 1.6 0.4 1.6 -6.5 0 -4.3 -0.2 -7.6 -0.4 -7.4 -2.4 2.4 -8.6 10.5 -8.6 11.1 0 0.5 0.6 0.8 1.4 0.8 1.2 0 1 1.1 -0.7 6 -1.2 3.3 -2.5 6 -2.8 6 -0.3 0 -1.3 -1.8 -2.2 -4 -1.1 -2.8 -2 -3.8 -3 -3.4 -1.2 0.4 -1.1 1.4 0.7 6 1.8 4.7 2.4 5.4 4.5 5.2 2 -0.2 3 -1.5 4.7 -5.8 z  m -9.6 -9.4 c 0 -0.8 -0.4 -1.7 -0.8 -2 -1.3 -0.8 -3.5 1.1 -2.8 2.3 1 1.6 3.6 1.4 3.6 -0.3 z  m -2.4 -4.7 c 0.3 -0.6 0.2 -1.5 -0.2 -1.9 -1.2 -1.2 -3.8 0.5 -3 1.9 0.9 1.4 2.3 1.4 3.2 0 z  m -2.3 -6.5 c -0.3 -0.8 -0.9 -1.4 -1.3 -1.4 -1.3 0 -2.2 1.9 -1.5 3 0.9 1.4 3.4 0 2.8 -1.6 z "/>
  <path d="M 284 436.2 c 0 -2.6 7.9 -24.4 24.3 -67.2 13.4 -34.9 27 -70.4 30.2 -78.8 5.8 -15.2 5.8 -15.2 30.4 -15 19 0.2 24.5 0.6 24.3 1.6 -0.1 0.6 0.2 1.2 0.6 1.2 0.5 0 1.5 1.8 2.2 4 1 3.1 1.8 4 3.6 4 1.3 0 2.8 -0.9 3.4 -2 0.6 -1.1 1.6 -2 2.3 -2 0.8 0 7.7 15.8 16.5 37.3 8.3 20.4 22.1 54.4 30.7 75.3 10.1 25 15.5 39.4 15.5 41.8 0 3.6 0 3.6 -26.5 3.6 -26.4 0 -26.4 0 -28.5 -4.6 -1.3 -3.1 -2 -6.8 -2 -11.3 -0.1 -5.7 -0.2 -6.4 -1.4 -4.8 -1.8 2.3 -2.2 2.2 -3.6 -1.3 -1.2 -3 -1.2 -3 -31.6 -3 -30.3 0 -30.3 0 -34.2 12.3 -3.9 12.2 -3.9 12.2 -30 12.5 -26.2 0.2 -26.2 0.2 -26.2 -3.6 z  m 105 -63.4 c 0 -0.2 -3.3 -9.5 -7.4 -20.7 -7.3 -20.4 -7.3 -20.4 -11.9 -8 -2.5 6.8 -5.9 16.1 -7.6 20.7 -3 8.2 -3 8.2 11.9 8.2 8.3 0 15 -0.1 15 -0.2 z "/>
  <path d="M 398.1 278.9 c -1.4 -4.1 -1.5 -3.9 1.8 -3.9 2.9 0 2.9 0.1 1.8 3.5 -1.3 4.3 -2.2 4.4 -3.6 0.4 z "/>
  <path d="M 270.1 246.9 c -1.4 -4 0.1 -6.9 3.5 -6.9 1.7 0 2.4 0.4 2 1.3 -0.2 0.6 -1 2.9 -1.7 5 -1.5 4.5 -2.4 4.7 -3.8 0.6 z "/>
 </g>
 <g fill="#ff8b1e">
  <path d="M 287 572.4 c 0 -0.5 -2.8 -0.8 -6.2 -0.7 -3.5 0.1 -5.7 0 -5 -0.3 0.6 -0.3 1 -0.9 0.7 -1.4 -0.3 -0.4 0.1 -2.3 0.9 -4.1 0.7 -1.9 1.6 -4.2 2 -5.3 0.5 -1.5 0.9 -1.6 2.1 -0.6 1.3 1.1 1.5 0.6 1.5 -3.4 0 -4.6 0 -4.6 16.8 -4.6 51.4 0 98.8 -12.6 138.7 -36.8 11.7 -7.1 36.3 -25.2 34.3 -25.2 -0.4 0 -4.2 2.5 -8.5 5.6 -31.4 22.5 -71.4 36.1 -112.3 38 -14 0.7 -14 0.7 -14 -1.6 0 -1.9 0.4 -2.2 3.4 -1.8 1.9 0.2 3.3 0.1 3.1 -0.3 -0.3 -0.3 2.1 -1.2 5.3 -1.9 15.8 -3.4 43.5 -16.8 61.3 -29.6 21 -15 49.2 -47.1 58.4 -66.5 1 -2.1 2.8 -4 4.6 -4.6 3.2 -1.2 3.4 -1.1 1.9 1.8 -1.7 3 0.2 2.3 8.6 -3.3 9.6 -6.4 25.6 -21.7 33.9 -32.3 6.9 -8.8 14.6 -21.1 18.4 -29.3 3.4 -7.3 5.6 -7 4.6 0.6 -2.1 17.5 -9.1 43.5 -14.9 55.2 -8.9 18.1 -11.7 23.3 -16.3 30.3 -5.9 9 -4 7.8 5.1 -3.3 9.4 -11.3 22.5 -32 26.3 -41.5 0.6 -1.6 3.2 -8.1 5.8 -14.3 21.2 -52.2 22.8 -118.9 4.1 -174 -6.1 -17.8 -7.8 -21.9 -15.6 -37 -40 -77.3 -116.5 -130.2 -204.7 -141.7 -16.3 -2.1 -48.8 -2.1 -64.8 0 -100.9 13.3 -188.2 86 -218.6 182 -7.6 24 -10.8 43.8 -11.6 71 -0.7 23.2 0.5 37.2 4.7 58.5 12.4 62.2 51.7 118.9 108.4 156.4 14.2 9.3 15.9 10.3 28 16.3 24.4 12 47.1 19.8 72.1 24.7 8.2 1.6 10.1 1.9 21.7 3.1 6.8 0.7 6.8 0.7 4.8 3.5 -2.4 3.3 -2.5 4 -0.6 4 1.2 0 1.1 1.1 -0.7 5.9 -1.2 3.3 -2.5 5.7 -2.9 5.5 -0.5 -0.3 -1.5 -2.1 -2.3 -4 -1 -2.4 -1.9 -3.2 -2.9 -2.8 -1.2 0.5 -1.3 1.1 -0.6 2.4 1.5 2.7 1.2 4 -0.7 4.1 -1.2 0.1 -1 0.4 0.7 0.9 1.5 0.5 0.2 0.6 -3.5 0.3 -3.3 -0.3 -6.2 -0.9 -6.5 -1.2 -0.3 -0.3 -2.4 -0.6 -4.7 -0.7 -5.3 -0.1 -18.3 -2.5 -17.9 -3.3 0.2 -0.3 -1.2 -0.7 -3.3 -0.8 -2 -0.1 -5.6 -0.9 -8.1 -1.7 -2.8 -1 -3.4 -1.4 -1.5 -1.1 2.1 0.4 2.5 0.2 1.5 -0.4 -0.8 -0.5 -3.1 -0.9 -5 -0.8 -4 0.1 -18.2 -4.2 -17.5 -5.4 0.3 -0.4 -0.2 -1 -1.1 -1.3 -1 -0.4 -1.3 -0.2 -0.8 0.6 0.5 0.8 0.2 0.9 -1 0.5 -1 -0.4 -2.3 -0.7 -2.9 -0.7 -0.7 0 -0.6 -0.5 0.3 -1.1 1.3 -0.9 1.2 -1 -0.3 -0.5 -2.4 0.8 -12.9 -3.2 -12.1 -4.6 0.4 -0.7 0.2 -0.8 -0.5 -0.4 -1.4 0.9 -5.3 -0.3 -4.6 -1.4 0.3 -0.5 0 -1.2 -0.6 -1.6 -0.8 -0.4 -0.9 -0.3 -0.5 0.4 0.4 0.7 0.5 1.2 0.1 1.2 -1.4 0 -11.1 -5.4 -12.3 -6.9 -0.7 -0.9 -1.1 -1 -0.7 -0.4 0.4 0.9 0.1 1.1 -0.9 0.7 -0.9 -0.3 -1.3 -1.1 -0.9 -1.7 0.3 -0.5 0.1 -0.7 -0.4 -0.4 -0.9 0.6 -10.3 -3.8 -10.3 -4.8 0 -0.2 0.5 -1.6 1 -3 0.9 -2.3 1.3 -2.5 2.5 -1.5 1.3 1.1 1.5 0.2 1.5 -6.5 0 -4.3 -0.2 -7.6 -0.4 -7.4 -2.4 2.4 -8.6 10.5 -8.6 11.1 0 0.5 0.6 0.8 1.4 0.8 0.9 0 1.2 0.7 0.9 2 -0.9 3.3 -1.9 3.2 -6.7 -0.5 -2.6 -1.9 -5.1 -3.5 -5.7 -3.5 -0.8 0 -0.8 -0.4 0.1 -1.5 1.6 -1.9 0.5 -3.4 -2 -2.8 -1.1 0.3 -1.7 1 -1.3 1.7 0.4 0.6 -1.3 -0.4 -3.7 -2.2 -11.2 -8.2 -16 -12.3 -15.5 -13.2 0.3 -0.5 0 -0.7 -0.8 -0.4 -0.8 0.3 -6.7 -4.7 -15 -12.6 -18.5 -17.8 -39.7 -43.5 -38.1 -46.2 0.4 -0.7 0.3 -0.8 -0.4 -0.4 -1.2 0.7 -3.5 -2.7 -2.5 -3.8 0.3 -0.3 0.1 -0.6 -0.5 -0.6 -2.2 0 -18.6 -30.4 -17.7 -32.8 0.3 -0.7 0.1 -1.1 -0.4 -0.8 -1.2 0.8 -6.3 -12.2 -5.5 -13.6 0.4 -0.7 0.2 -0.8 -0.4 -0.4 -0.7 0.4 -1.2 0.3 -1.2 -0.3 0 -0.5 0.6 -1.2 1.3 -1.4 0.8 -0.4 0.7 -0.6 -0.3 -0.6 -1.7 -0.1 -5.3 -10.1 -9.4 -26.2 -3.8 -14.7 -4 -16.9 -1.8 -22.5 1 -2.7 2.2 -5.7 2.6 -6.8 0.5 -1.5 0.9 -1.6 2.1 -0.6 1.3 1.1 1.5 0.2 1.5 -6.5 0 -4.3 -0.2 -7.6 -0.4 -7.4 -2.2 2.3 -8.6 10.5 -8.6 11.1 0 0.3 0.6 0.8 1.4 1 1.3 0.3 1.3 0.8 0 3.7 -0.8 1.9 -1.6 3.2 -1.8 3 -0.5 -0.5 -2.3 -19.5 -3.1 -31.9 -0.7 -11.2 0.8 -36 3 -51.5 2 -13.7 7.4 -36.7 8.5 -36 0.4 0.3 0.6 -0.3 0.3 -1.3 -1.3 -5 16.8 -46.7 28.7 -66.2 8.5 -13.8 18.2 -27 19.4 -26.3 0.6 0.3 0.8 0.3 0.4 -0.2 -1 -1.1 1.1 -4.7 2.3 -4 0.5 0.4 0.8 0.3 0.7 -0.2 -0.5 -1.6 2.3 -5.4 3.5 -4.7 0.7 0.4 0.9 0.4 0.5 -0.1 -1 -1.1 4.2 -7.6 5.5 -6.8 0.5 0.3 0.7 0.2 0.4 -0.4 -0.3 -0.5 5.1 -6.6 12.1 -13.5 15.1 -15 19.3 -18.6 20.8 -18.1 0.6 0.2 1.7 -0.4 2.5 -1.4 1.3 -1.6 1.2 -1.7 -0.3 -0.4 -1 0.7 -1.8 1.1 -1.8 0.8 0 -0.8 14.6 -11.9 18 -13.8 1.4 -0.7 2.8 -1.2 3.3 -1.1 0.4 0.1 0.7 -0.3 0.7 -0.9 0 -0.6 0.7 -0.8 1.6 -0.5 1 0.4 1.8 0 2.1 -1.3 0.6 -2.2 7.2 -6.1 9.2 -5.3 0.8 0.3 1.1 0 0.7 -0.6 -0.4 -0.6 0.3 -1.6 1.5 -2.3 1.7 -0.9 2.4 -0.8 3.1 0.2 0.7 1.1 0.8 0.9 0.4 -0.5 -0.5 -1.4 -0.2 -1.7 0.9 -1.2 0.9 0.3 1.3 0.2 1 -0.4 -0.7 -1.1 4.8 -4.1 6.7 -3.7 0.7 0.2 0.9 0.2 0.4 -0.1 -0.6 -0.3 2.7 -2.2 7.3 -4.3 4.6 -2.1 8.7 -3.6 9.2 -3.3 0.5 0.3 0.9 -0.1 0.9 -0.8 0 -0.9 0.3 -0.9 1 0.2 0.8 1.3 1.1 1.3 2.2 0.1 1 -1 1 -1.2 0 -0.7 -0.6 0.4 -1.2 0.3 -1.2 -0.2 0 -1.1 17.9 -7.4 19.1 -6.6 0.5 0.3 0.9 0 0.9 -0.5 0 -0.6 0.5 -1.1 1.1 -1.1 0.5 0 0.7 0.4 0.4 1 -0.3 0.5 0.1 1 1 1 1.1 0 1.5 -0.5 1.2 -1.4 -0.7 -1.6 7.4 -4.3 9.4 -3.1 0.8 0.6 1 0.4 0.4 -0.5 -0.6 -1 -0.1 -1.2 1.8 -0.8 1.5 0.3 2.4 0.2 2.2 -0.2 -0.7 -1.2 8.2 -3.1 11.3 -2.4 2.1 0.4 2.4 0.3 1.2 -0.5 -1.1 -0.8 -0.2 -1 3.5 -0.6 3.5 0.3 4.1 0.2 2 -0.3 -2.5 -0.6 -1.1 -1.1 7.5 -2.5 31.9 -5.1 59.4 -5.2 95.3 -0.1 3.3 0.5 4.7 1.1 4.8 2.3 0 1 0.2 1.2 0.6 0.4 0.2 -0.7 1.1 -1.3 1.9 -1.3 0.8 0 1.1 0.6 0.8 1.5 -0.5 1.1 0.1 1.5 1.7 1.5 1.9 0 2.1 -0.2 0.9 -1 -1.3 -0.8 -1.2 -1 0.3 -1 0.9 0 1.7 0.4 1.7 1 0 0.5 0.6 0.7 1.3 0.4 2.2 -0.8 10.9 1.6 12.4 3.4 0.8 0.9 1.2 1.1 0.8 0.5 -0.8 -1.7 0 -1.6 6.5 0.3 3 0.9 5.9 2.2 6.5 3 0.5 0.8 1.9 1.4 3 1.3 3.8 -0.4 5.6 0.1 4.9 1.3 -0.5 0.7 -0.3 0.8 0.5 0.4 0.7 -0.5 4.6 0.5 8.6 2 4.6 1.8 7 3.1 6.2 3.6 -0.7 0.5 -0.2 0.7 1.3 0.6 3.8 -0.3 15.2 5.2 14.5 7 -0.4 1.1 0.1 1.3 1.9 1 2.7 -0.5 16.2 6.3 14.9 7.5 -0.3 0.4 0.2 0.7 1.3 0.7 2.5 0 19 10.7 18.6 12.1 -0.1 0.6 0.2 0.8 0.8 0.4 1.4 -0.9 4.2 1.4 3.3 2.8 -0.4 0.6 0 0.8 0.9 0.5 0.9 -0.4 3.2 0.9 5.9 3.4 2.4 2.2 3.6 3.5 2.7 2.8 -1.5 -1 -1.8 -1 -1.8 0.5 0 1.3 0.6 1.6 2.5 1.3 2 -0.4 3.9 0.6 8.8 5 12.5 11 21.7 20.4 21.1 21.4 -0.4 0.6 -0.2 0.8 0.4 0.4 0.6 -0.3 4.1 2.7 7.8 6.9 8 8.9 10.5 12.5 9.7 13.8 -0.3 0.6 -0.1 0.7 0.5 0.3 1.3 -0.8 5.8 5.3 5.4 7.2 -0.2 0.9 0.1 1.1 0.9 0.6 0.7 -0.4 0.3 0.6 -0.9 2.3 -2.6 3.6 -2.7 4.3 -0.8 4.3 1.2 0 1 1.1 -0.7 6 -1.2 3.3 -2.5 6 -2.8 6 -0.3 0 -1.3 -1.8 -2.2 -4 -1.1 -2.8 -2 -3.8 -3 -3.4 -1.2 0.4 -1.1 1.4 0.7 6 1.8 4.7 2.4 5.4 4.5 5.2 2 -0.2 3 -1.5 4.7 -5.8 1.2 -3 2.5 -6.4 2.8 -7.4 0.4 -1.7 0.7 -1.8 2.2 -0.5 0.9 0.8 2 1.3 2.3 1.2 0.3 -0.1 0.5 0.5 0.3 1.3 -0.2 0.8 0.1 1.4 0.5 1.3 2 -0.3 2.7 0.2 1.3 1.1 -1.2 0.8 -1.2 1 0.5 1 1.7 0 1.7 0.2 0.5 1 -1.3 0.8 -1.3 1 0.1 1 2 0 5.3 4.8 5.1 7.4 0 1 0.2 1.6 0.5 1.2 1 -0.9 3.5 3.3 2.7 4.6 -0.4 0.6 -0.3 0.8 0.3 0.5 1.3 -0.8 4.9 7 4.5 9.8 -0.2 1.6 -0.1 1.7 0.7 0.5 1 -1.4 1.2 -1 1.1 1.5 -0.1 0.3 0.6 1.3 1.5 2.2 0.9 0.8 1.4 2.2 1.1 3 -0.3 0.8 -0.2 1.2 0.2 0.9 1.1 -0.6 11.2 24.9 11.5 28.9 0.1 1.7 0.6 3.3 1 3.6 0.4 0.3 2.3 6.6 4.1 14 3.7 14.8 5.4 25.4 3.7 22.9 -1.1 -1.5 -1.1 -1.2 -0.2 4 0.1 0.3 0.6 -0.2 1.1 -1 0.7 -1.2 1 -0.8 1 1.5 0 2.4 -0.2 2.7 -1.1 1.5 -0.9 -1.2 -1 -1.2 -0.5 0.3 0.3 1 0.6 2.8 0.7 4 0.1 2 0.2 2 1 -0.3 0.7 -2 0.8 -1.7 0.6 1.7 -0.1 2.4 0.2 4.4 0.7 4.6 0.6 0.2 0.9 11.2 1 27.3 0 22.6 -0.4 29.1 -2.2 40.9 -2.8 18.3 -5.3 29.5 -6.4 29.5 -0.5 0 -0.7 0.4 -0.3 0.9 1.1 1.9 -1.6 10.1 -3.4 10.1 -1.1 0 -1.2 0.3 -0.4 0.8 0.9 0.6 0.8 2.4 -0.8 7.5 -1.1 3.7 -2.4 6.7 -3 6.7 -0.6 0 -0.8 0.4 -0.5 0.9 0.3 0.5 0.1 2.3 -0.5 4.1 -0.9 2.4 -1.4 2.9 -2.1 1.8 -0.7 -0.9 -0.8 -0.7 -0.3 0.8 0.7 2.8 -1.4 7.4 -3.4 7.4 -1.2 0 -1.3 0.2 -0.3 0.8 0.9 0.6 0.8 1.6 -0.6 4.5 -1 2.1 -2.2 3.4 -2.7 3 -0.4 -0.4 -0.5 -0.2 -0.1 0.5 0.9 1.6 -9.5 20.8 -12.7 23.5 -1.2 1 -1.6 1.6 -0.8 1.2 0.7 -0.4 -0.3 1.8 -2.3 4.9 -2 3.1 -3.6 6.6 -3.6 7.7 0 1.2 -1 3.4 -2.2 4.9 -1.3 1.5 -2.9 3.6 -3.6 4.6 -1.1 1.6 -1.2 1.7 -0.8 0.2 0.8 -2.7 -0.6 -2.1 -3.3 1.2 -1.3 1.6 -2.6 2.8 -3 2.6 -0.3 -0.2 -0.5 1.3 -0.3 3.5 0.4 3.7 -1 5.4 -2.2 2.7 -0.3 -0.8 -1.8 0.2 -4 2.7 -2 2.2 -4.2 3.8 -4.9 3.7 -0.6 -0.2 -0.9 0 -0.4 0.4 1 1 -10.4 12.5 -11.6 11.7 -0.6 -0.3 -0.7 -0.1 -0.3 0.5 0.7 1.1 -10.9 11.9 -12.5 11.4 -0.5 -0.1 -0.8 0.4 -0.7 1 0.2 0.7 -0.5 1.2 -1.4 1.2 -1 -0.1 -1.6 0.3 -1.5 1 0.1 0.6 -0.4 1 -1.1 0.8 -0.8 -0.1 -1.1 0.2 -0.8 0.7 0.6 0.9 -3.2 3.9 -4.7 3.7 -0.5 -0.1 -1.3 0.7 -1.8 1.6 -1.3 2.4 -9.7 8 -10.1 6.9 -0.2 -0.5 -1.2 -0.3 -2.3 0.6 -2 1.6 -2 1.6 0 0.9 1.6 -0.5 1.5 -0.3 -0.5 1.4 -1.4 1.1 -2.9 2 -3.5 2 -0.5 0 -0.3 -0.5 0.5 -1.1 1.3 -0.9 1.3 -1 0 -0.6 -0.8 0.2 -1.5 0.9 -1.5 1.6 0 1.5 -2.5 3 -4.1 2.4 -0.6 -0.2 -1.5 0.1 -2 0.8 -0.5 0.8 -0.3 1 0.6 0.4 0.8 -0.5 1.1 -0.4 0.6 0.3 -0.4 0.6 -1.4 0.8 -2.3 0.5 -1 -0.4 -1.4 -0.2 -1 0.4 0.9 1.4 -10 7.6 -11.5 6.7 -0.6 -0.4 -0.8 -0.3 -0.5 0.3 0.8 1.2 -11.9 7.6 -13.4 6.7 -0.7 -0.4 -0.9 -0.3 -0.6 0.3 1.2 1.8 -25.8 12.7 -28.9 11.7 -1.4 -0.4 -1.5 -0.3 -0.6 0.4 1.6 1.1 -9.1 4.4 -11.5 3.5 -1 -0.4 -1.4 -0.2 -1 0.4 0.4 0.6 -0.6 1.3 -2.2 1.6 -1.6 0.3 -4.2 0.9 -5.7 1.2 -2.3 0.5 -2.6 0.4 -1.4 -0.5 1.3 -1 1.2 -1.1 -0.3 -0.6 -1 0.3 -2.1 0.6 -2.3 0.6 -0.3 0 -0.2 0.5 0.2 1.2 0.5 0.8 0 0.9 -1.4 0.6 -1.2 -0.4 -2.2 -0.3 -2.2 0.1 0 1.5 -17.5 4 -23.8 3.4 -5 -0.5 -6.2 -0.3 -6 0.8 0.4 1.9 -5.8 2.5 -31.4 3.5 -12.4 0.4 -20.8 0.3 -20.8 -0.2 z  m -20 -13.8 c 0 -0.8 -0.4 -1.7 -0.8 -2 -1.3 -0.8 -3.5 1.1 -2.8 2.3 1 1.6 3.6 1.4 3.6 -0.3 z  m -2.4 -4.7 c 0.3 -0.6 0.2 -1.5 -0.2 -1.9 -1.2 -1.2 -3.8 0.5 -3 1.9 0.9 1.4 2.3 1.4 3.2 0 z  m -130.3 -38.5 c -0.3 -0.8 -0.9 -1.4 -1.3 -1.4 -1.3 0 -2.2 1.9 -1.5 3 0.9 1.4 3.4 0 2.8 -1.6 z  m 388.7 -372.8 c 0 -0.8 -0.4 -1.7 -0.8 -2 -1.3 -0.8 -3.5 1.1 -2.8 2.3 1 1.6 3.6 1.4 3.6 -0.3 z  m -2.4 -4.7 c 0.3 -0.6 0.2 -1.5 -0.2 -1.9 -1.2 -1.2 -3.8 0.5 -3 1.9 0.9 1.4 2.3 1.4 3.2 0 z  m -2.3 -6.5 c -0.3 -0.8 -0.9 -1.4 -1.3 -1.4 -1.3 0 -2.2 1.9 -1.5 3 0.9 1.4 3.4 0 2.8 -1.6 z "/>
  <path d="M 342.3 569.3 c 0.9 -0.2 2.5 -0.2 3.5 0 0.9 0.3 0.1 0.5 -1.8 0.5 -1.9 0 -2.7 -0.2 -1.7 -0.5 z "/>
  <path d="M 11.4 504.6 c -1.8 -4.6 -1.9 -5.6 -0.7 -6 1 -0.4 1.9 0.6 3 3.4 0.9 2.2 1.9 4 2.2 4 0.3 0 1.6 -2.7 2.8 -6 1.7 -4.9 1.9 -6 0.7 -6 -0.8 0 -1.4 -0.3 -1.4 -0.8 0 -0.6 6.2 -8.7 8.6 -11.1 0.2 -0.2 0.4 3.1 0.4 7.4 0 6.9 -0.2 7.6 -1.6 6.5 -1.3 -1.1 -1.6 -1 -2 0.6 -0.3 1 -1.6 4.4 -2.8 7.4 -1.7 4.3 -2.7 5.6 -4.7 5.8 -2.1 0.2 -2.7 -0.5 -4.5 -5.2 z "/>
  <path d="M 7.4 494.9 c -0.7 -1.2 1.5 -3.1 2.8 -2.3 0.4 0.3 0.8 1.2 0.8 2 0 1.7 -2.6 1.9 -3.6 0.3 z "/>
  <path d="M 5.4 489.9 c -0.8 -1.4 1.8 -3.1 3 -1.9 0.9 0.9 0 3 -1.4 3 -0.5 0 -1.2 -0.5 -1.6 -1.1 z "/>
  <path d="M 3.5 485 c -0.7 -1.1 0.2 -3 1.5 -3 0.4 0 1 0.6 1.3 1.4 0.6 1.6 -1.9 3 -2.8 1.6 z "/>
  <path d="M 354.5 374.3 c 1.1 -2.8 18.2 -49.7 18.6 -51 0.9 -2.9 3 1.6 11.3 25.2 4.9 13.8 9.1 25.6 9.4 26.3 0.3 0.9 -4.1 1.2 -19.8 1.2 -18.8 0 -20.2 -0.1 -19.5 -1.7 z "/>
  <path d="M 270 260.6 c 0 -1 2 -1.9 5.8 -2.6 9.6 -2 28.3 -8.5 37.2 -13 14.2 -7.1 24.9 -14.9 36.6 -26.5 16.1 -15.8 27.1 -33.4 33.5 -53.2 1.6 -4.8 2.9 -7.3 4.1 -7.6 1.3 -0.4 1.8 0.1 1.8 1.6 0 3.8 4.9 21.5 8.2 29.8 3.1 7.9 3.1 7.9 -4.1 17.3 -8.4 11.1 -17.1 19 -29.7 27.3 -23.3 15.2 -50.1 24.6 -78 27.3 -14.2 1.3 -15.4 1.3 -15.4 -0.4 z "/>
  <path d="M 194 251.9 c 0 -1 3.4 -2.7 9.3 -4.8 52 -18.7 70.4 -28.3 92 -48.1 3.7 -3.4 5.6 -4.6 6 -3.7 0.3 0.8 -1.2 5.5 -3.4 10.6 -3.8 9.1 -5.1 11.6 -11.3 21.6 -3.1 5 -3.1 5 -3.6 1.7 -0.5 -3.3 -0.5 -3.3 -4.5 1.9 -2.2 2.8 -4.6 5.7 -5.3 6.5 -1.8 1.8 -5.2 1.8 -6.6 -0.1 -0.7 -1 -1.6 -1.2 -2.5 -0.6 -1.2 0.8 -1.2 1.2 -0.2 2.4 1.5 1.9 1.6 1.9 -10.4 5.6 -13.4 4.2 -30.1 7 -46.2 7.8 -11.2 0.5 -13.3 0.4 -13.3 -0.8 z  m 70.6 -18 c 0.3 -0.6 0.2 -1.5 -0.2 -1.9 -1.2 -1.2 -3.8 0.5 -3 1.9 0.9 1.4 2.3 1.4 3.2 0 z  m -2.3 -6.5 c -0.3 -0.8 -0.9 -1.4 -1.3 -1.4 -1.3 0 -2.2 1.9 -1.5 3 0.9 1.4 3.4 0 2.8 -1.6 z "/>
 </g>
 <g fill="#fff9ed">
  <path d="M 278 536.6 c -26.5 -4.1 -48 -11.1 -69.7 -22.6 -55.1 -29.4 -88.8 -74.3 -96.9 -129.4 -2 -13.2 -1.5 -35.9 1 -47.6 8.4 -39.3 32.9 -67 73.6 -83.3 7.3 -2.9 10.1 -3.5 20.1 -4 15.6 -0.9 32 -3.8 45.4 -8.1 7 -2.2 11.3 -3.2 11.9 -2.6 1.7 1.7 3.9 1.1 3.4 -0.8 -0.4 -1.3 0.9 -2.4 5.4 -4.4 5.9 -2.7 5.9 -2.7 3.8 0.1 -2.4 3.5 -2.5 4.1 -0.5 4.1 1.8 0 1 2.3 -2.3 6.8 -2.5 3.3 -2.5 3.3 -3.8 0.3 -0.9 -2 -1.8 -2.9 -2.8 -2.5 -1.2 0.5 -1.2 1 -0.1 3.8 1.4 3.2 1.3 3.4 -2.3 6.8 -2 2 -4.6 4 -5.7 4.6 -5 2.8 28.2 0.6 44.4 -2.9 26.7 -5.8 55 -19.8 73.6 -36.4 3.9 -3.5 10.4 -10.7 14.4 -16.2 7.4 -9.9 7.4 -9.9 11 -2.8 9 17.2 17.8 28.1 38.7 48.1 21.8 20.8 32.9 36.3 41.3 57.9 7.1 18.1 8.6 27.7 8.6 53.5 0 25 -0.8 30.4 -7.2 50.5 -8.3 26.3 -25.1 51.6 -49.6 75.2 -35.7 34.2 -78.9 51.9 -129.2 52.9 -11.7 0.2 -21 -0.2 -26.5 -1 z  m 126.6 -96.6 c 1.2 -3 2.5 -6.4 2.8 -7.4 0.4 -1.6 0.7 -1.7 2 -0.6 1.4 1.1 1.6 0.5 1.6 -5.1 0.1 -6.4 0.1 -6.4 3.4 1.6 3.4 8 3.4 8 27 8.3 13 0.1 23.6 0 23.6 -0.4 0 -0.6 -6.9 -17.5 -40.4 -99.7 -21.5 -52.9 -21.5 -52.9 -19.7 -57.5 1 -2.6 2.1 -5.5 2.5 -6.6 0.5 -1.5 0.9 -1.6 2.1 -0.6 1.3 1.1 1.5 0.2 1.5 -6.5 0 -4.3 -0.2 -7.6 -0.4 -7.4 -2.4 2.4 -8.6 10.5 -8.6 11.1 0 0.5 0.7 0.8 1.5 0.8 1.2 0 1.2 0.6 -0.2 4.4 -1.3 3.4 -2 4.2 -3.5 3.8 -1 -0.2 -2.3 -1.3 -2.8 -2.3 -1.1 -1.9 -4.1 -1.6 -3.7 0.4 0.1 0.9 -6.1 1.3 -22.9 1.5 -23.1 0.2 -23.1 0.2 -28.4 14 -2.8 7.5 -16.2 42.5 -29.7 77.7 -13.5 35.2 -24.8 64.8 -25.1 65.8 -0.4 1.6 1 1.7 22.8 1.5 23.3 -0.3 23.3 -0.3 27.2 -12.5 3.9 -12.3 3.9 -12.3 37.2 -12.3 33.3 0 33.3 0 34.4 2.5 1.7 3.6 1.6 3.7 -2.8 9.1 -4.3 5.3 -4.8 6.4 -2.6 6.4 1.2 0 1 1.1 -0.7 6 -1.2 3.3 -2.5 6 -2.8 6 -0.3 0 -1.3 -1.8 -2.2 -4 -1.1 -2.8 -2 -3.8 -3 -3.4 -1.2 0.4 -1.1 1.4 0.7 6 1.8 4.7 2.4 5.4 4.5 5.2 2 -0.2 3 -1.5 4.7 -5.8 z  m -162.5 -3.4 c 20.9 -4.4 35 -14.2 42.2 -29.4 3 -6.3 3.2 -7.4 3.2 -17.7 0 -10.5 -0.2 -11.3 -3.4 -18 -4.3 -8.8 -12.2 -16.8 -21.6 -21.7 -8.7 -4.5 -25.3 -9.6 -45 -13.7 -21.5 -4.5 -27.3 -8 -24.9 -14.8 4.2 -12 47 -9.8 70.1 3.7 3.2 1.9 3.2 1.9 11.7 -13.3 4.7 -8.4 8.7 -15.9 9 -16.7 0.4 -1 -0.4 -2 -2.1 -2.8 -37.5 -18.1 -85.4 -20.1 -112.8 -4.7 -26.8 15 -32.6 46.3 -12.3 66.6 9.6 9.6 20.1 13.9 48.7 20 24.4 5.1 25.5 5.5 29.6 9 2.8 2.5 3.5 3.8 3.5 6.8 -0.1 4.3 -1.4 6.2 -5.9 8.5 -12.7 6.6 -48.2 -0.7 -67.3 -13.8 -3.8 -2.5 -3.8 -2.5 -5.2 -0.3 -0.7 1.2 -5.1 8.4 -9.6 16 -9.6 15.8 -9.9 13.5 3 21.1 25 14.8 61.1 21 89.1 15.2 z  m 152.9 -6 c 0 -0.8 -0.4 -1.7 -0.8 -2 -1.3 -0.8 -3.5 1.1 -2.8 2.3 1 1.6 3.6 1.4 3.6 -0.3 z  m -2.4 -4.7 c 0.3 -0.6 0.2 -1.5 -0.2 -1.9 -1.2 -1.2 -3.8 0.5 -3 1.9 0.9 1.4 2.3 1.4 3.2 0 z  m -2.3 -6.5 c -0.3 -0.8 -0.9 -1.4 -1.3 -1.4 -1.3 0 -2.2 1.9 -1.5 3 0.9 1.4 3.4 0 2.8 -1.6 z  m -241.7 -43.4 c 1.2 -3 2.5 -6.4 2.8 -7.4 0.4 -1.6 0.7 -1.7 2 -0.6 1.4 1.1 1.6 0.4 1.6 -6.5 0 -4.3 -0.2 -7.6 -0.4 -7.4 -2.4 2.4 -8.6 10.5 -8.6 11.1 0 0.5 0.6 0.8 1.4 0.8 1.2 0 1 1.1 -0.7 6 -1.2 3.3 -2.5 6 -2.8 6 -0.3 0 -1.3 -1.8 -2.2 -4 -1.1 -2.8 -2 -3.8 -3 -3.4 -1.2 0.4 -1.1 1.4 0.7 6 1.8 4.7 2.4 5.4 4.5 5.2 2 -0.2 3 -1.5 4.7 -5.8 z  m -9.6 -9.4 c 0 -0.8 -0.4 -1.7 -0.8 -2 -1.3 -0.8 -3.5 1.1 -2.8 2.3 1 1.6 3.6 1.4 3.6 -0.3 z  m -2.4 -4.7 c 0.3 -0.6 0.2 -1.5 -0.2 -1.9 -1.2 -1.2 -3.8 0.5 -3 1.9 0.9 1.4 2.3 1.4 3.2 0 z  m -2.3 -6.5 c -0.3 -0.8 -0.9 -1.4 -1.3 -1.4 -1.3 0 -2.2 1.9 -1.5 3 0.9 1.4 3.4 0 2.8 -1.6 z  m 260.7 -84.8 c 0 -0.8 -0.4 -1.7 -0.8 -2 -1.3 -0.8 -3.5 1.1 -2.8 2.3 1 1.6 3.6 1.4 3.6 -0.3 z  m -2.4 -4.7 c 0.3 -0.6 0.2 -1.5 -0.2 -1.9 -1.2 -1.2 -3.8 0.5 -3 1.9 0.9 1.4 2.3 1.4 3.2 0 z  m -2.3 -6.5 c -0.3 -0.8 -0.9 -1.4 -1.3 -1.4 -1.3 0 -2.2 1.9 -1.5 3 0.9 1.4 3.4 0 2.8 -1.6 z "/>
  <path d="M 523.4 472.6 c -1.8 -4.6 -1.9 -5.6 -0.7 -6 1 -0.4 1.9 0.6 3 3.4 0.9 2.2 1.9 4 2.2 4 0.3 0 1.6 -2.7 2.8 -6 1.7 -4.9 1.9 -6 0.7 -6 -0.8 0 -1.4 -0.3 -1.4 -0.8 0 -0.6 6.2 -8.7 8.6 -11.1 0.2 -0.2 0.4 3.1 0.4 7.4 0 6.9 -0.2 7.6 -1.6 6.5 -1.3 -1.1 -1.6 -1 -2 0.6 -0.3 1 -1.6 4.4 -2.8 7.4 -1.7 4.3 -2.7 5.6 -4.7 5.8 -2.1 0.2 -2.7 -0.5 -4.5 -5.2 z "/>
  <path d="M 519.4 462.9 c -0.7 -1.2 1.5 -3.1 2.8 -2.3 0.4 0.3 0.8 1.2 0.8 2 0 1.7 -2.6 1.9 -3.6 0.3 z "/>
  <path d="M 517.4 457.9 c -0.8 -1.4 1.8 -3.1 3 -1.9 0.9 0.9 0 3 -1.4 3 -0.5 0 -1.2 -0.5 -1.6 -1.1 z "/>
  <path d="M 515.5 453 c -0.7 -1.1 0.2 -3 1.5 -3 0.4 0 1 0.6 1.3 1.4 0.6 1.6 -1.9 3 -2.8 1.6 z "/>
  <path d="M 283 230.9 c 0 -0.9 0.7 -2.2 1.5 -2.9 1.9 -1.6 1.9 0 0 2.6 -1.2 1.6 -1.4 1.6 -1.5 0.3 z "/>
 </g>
</svg>