<svg width="50" height="50" viewBox="0 0 750 750" xmlns="http://www.w3.org/2000/svg">
  <path fill="#FFFFFF" d="M 486.00,238.00
           C 486.00,238.00 497.28,259.00 497.28,259.00
             503.27,269.38 510.64,278.91 518.43,288.00
             518.43,288.00 561.56,332.00 561.56,332.00
             586.10,361.10 597.46,391.43 600.09,429.00
             600.09,429.00 601.00,442.00 601.00,442.00
             601.00,442.00 600.09,452.00 600.09,452.00
             599.46,461.16 598.70,469.97 596.79,479.00
             580.23,557.22 515.84,615.05 442.00,639.67
             426.66,644.78 410.95,648.46 395.00,651.08
             390.29,651.85 378.95,654.13 375.00,653.91
             304.62,649.93 228.82,613.45 182.87,560.00
             160.89,534.43 146.57,505.20 140.58,472.00
             139.42,465.61 138.08,457.45 138.00,451.00
             137.76,430.23 137.55,418.48 143.15,398.00
             155.92,351.35 196.36,323.01 241.00,310.43
             249.21,308.11 251.52,308.65 259.00,307.57
             259.00,307.57 288.00,301.58 288.00,301.58
             314.36,294.25 333.58,286.34 357.00,272.00
             351.26,286.77 328.36,307.87 316.00,318.00
             316.00,318.00 343.00,315.17 343.00,315.17
             343.00,315.17 368.00,312.00 368.00,312.00
             404.01,304.65 439.83,288.13 466.00,262.00
             473.49,254.52 480.68,247.26 486.00,238.00 Z" />
  
  <path fill="#FF8200" d="M 356.00,31.21
           C 356.00,31.21 390.00,31.21 390.00,31.21
             390.00,31.21 400.00,32.00 400.00,32.00
             400.00,32.00 408.00,32.00 408.00,32.00
             424.09,33.19 440.27,35.79 456.00,39.35
             571.81,65.56 661.86,142.65 706.00,253.00
             718.48,284.20 725.79,316.51 728.09,350.00
             728.09,350.00 729.00,360.00 729.00,360.00
             729.48,401.70 727.50,434.70 714.98,475.00
             681.71,582.03 595.61,664.84 489.00,697.98
             461.40,706.55 432.81,712.07 404.00,714.09
             404.00,714.09 392.00,715.00 392.00,715.00
             392.00,715.00 357.00,715.00 357.00,715.00
             357.00,715.00 347.00,714.09 347.00,714.09
             317.57,712.03 289.10,706.36 261.00,697.34
             220.07,684.21 182.61,664.44 149.00,637.55
             110.29,606.58 74.06,561.19 53.31,516.00
             12.03,426.09 13.58,321.32 55.78,232.00
             94.83,149.35 166.73,82.39 253.00,51.69
             278.47,42.63 305.17,36.54 332.00,33.28
             332.00,33.28 356.00,31.21 356.00,31.21 Z
           M 355.00,53.14
           C 355.00,53.14 327.00,56.28 327.00,56.28
             306.52,59.19 283.47,64.76 264.00,71.69
             186.21,99.40 118.86,159.65 81.26,233.00
             63.05,268.52 50.82,311.18 47.91,351.00
             47.91,351.00 47.00,363.00 47.00,363.00
             47.00,363.00 47.00,393.00 47.00,393.00
             47.04,420.97 56.89,461.95 67.20,488.00
             109.04,593.69 206.53,668.63 318.00,687.08
             318.00,687.08 346.00,690.96 346.00,690.96
             346.00,690.96 355.00,690.96 355.00,690.96
             355.00,690.96 365.00,692.00 365.00,692.00
             422.26,692.67 473.91,681.61 526.00,657.69
             560.04,642.06 593.68,616.36 620.00,590.00
             642.91,567.05 662.39,538.26 676.30,509.00
             691.50,477.00 701.50,442.40 704.09,407.00
             704.09,407.00 705.00,397.00 705.00,397.00
             705.00,397.00 705.99,376.00 705.99,376.00
             705.99,376.00 705.04,367.00 705.04,367.00
             705.04,367.00 705.04,356.00 705.04,356.00
             704.76,336.01 698.50,306.28 692.72,287.00
             675.56,229.80 642.32,177.25 598.00,137.17
             566.22,108.43 529.02,86.87 489.00,71.95
             461.46,61.68 432.27,55.92 403.00,53.91
             403.00,53.91 391.00,53.14 391.00,53.14
             391.00,53.14 355.00,53.14 355.00,53.14 Z
           M 475.00,182.00
           C 476.53,185.81 476.83,192.69 477.42,197.00
             477.42,197.00 482.37,223.00 482.37,223.00
             483.39,227.01 486.98,235.50 485.81,239.00
             483.82,244.97 470.76,258.26 466.00,263.00
             443.35,285.54 413.53,300.09 383.00,308.58
             374.23,311.01 366.01,312.76 357.00,314.00
             352.57,314.61 349.28,315.70 345.00,314.00
             358.60,311.26 377.73,303.43 390.00,296.84
             428.67,276.05 450.27,251.87 465.81,211.00
             468.60,203.66 473.50,189.43 475.00,182.00 Z
           M 375.00,227.00
           C 375.00,227.00 377.00,227.00 377.00,227.00
             373.04,238.89 366.71,261.58 358.47,270.70
             354.35,275.27 342.83,280.84 337.00,283.75
             317.64,293.44 297.07,299.91 276.00,304.65
             269.98,306.00 252.32,309.51 247.00,308.00
             256.06,305.88 280.79,294.71 290.00,290.26
             320.93,275.33 354.74,255.49 375.00,227.00 Z
           M 670.04,422.00
           C 671.95,426.91 670.91,435.72 670.04,441.00
             670.04,441.00 670.04,449.00 670.04,449.00
             670.04,449.00 666.61,470.00 666.61,470.00
             659.28,509.19 645.11,542.79 620.00,574.00
             613.67,581.87 594.69,600.92 586.00,605.00
             592.83,593.85 597.77,585.35 602.42,573.00
             604.45,567.60 606.83,561.83 606.00,556.00
             599.45,569.35 582.30,587.26 571.00,597.00
             534.27,628.65 489.71,646.06 442.00,652.28
             425.89,654.38 414.21,655.00 398.00,655.00
             392.72,655.00 385.34,656.20 381.00,653.00
             428.05,646.79 470.04,633.26 509.00,605.42
             516.70,599.92 525.17,593.49 532.00,586.96
             543.62,575.84 554.19,565.12 563.57,552.00
             563.57,552.00 579.21,528.39 579.21,528.39
             581.71,526.08 588.54,523.03 592.00,520.99
             597.96,517.46 607.73,510.22 613.00,505.70
             638.21,484.09 659.46,453.56 670.04,422.00 Z" />
  
  <path fill="#000000" d="M 354.00,53.21
           C 354.00,53.21 391.00,53.21 391.00,53.21
             391.00,53.21 403.00,53.91 403.00,53.91
             417.22,54.89 431.01,56.80 445.00,59.60
             542.32,79.07 627.22,145.54 671.73,234.00
             691.90,274.08 704.48,319.05 705.00,364.00
             705.00,364.00 705.99,379.00 705.99,379.00
             705.99,379.00 705.00,397.00 705.00,397.00
             705.00,397.00 704.09,407.00 704.09,407.00
             702.44,429.54 697.81,451.56 690.67,473.00
             663.62,554.13 606.39,617.56 530.00,655.75
             478.94,681.28 421.82,692.66 365.00,692.00
             365.00,692.00 355.00,690.96 355.00,690.96
             355.00,690.96 346.00,690.96 346.00,690.96
             346.00,690.96 318.00,687.08 318.00,687.08
             206.53,668.63 109.04,593.69 67.20,488.00
             56.89,461.95 47.04,420.97 47.00,393.00
             47.00,393.00 47.00,363.00 47.00,363.00
             47.00,363.00 47.91,351.00 47.91,351.00
             50.82,311.18 63.05,268.52 81.26,233.00
             118.86,159.65 186.21,99.40 264.00,71.69
             283.47,64.76 306.52,59.19 327.00,56.28
             327.00,56.28 354.00,53.21 354.00,53.21 Z
           M 476.00,182.00
           C 476.00,182.00 468.67,203.00 468.67,203.00
             464.76,214.67 460.24,226.29 454.13,237.00
             433.37,273.39 398.08,296.97 359.00,310.00
             345.56,314.48 339.31,316.37 325.00,317.02
             321.23,317.21 319.89,317.79 316.00,317.02
             323.01,313.24 330.37,305.69 336.00,300.00
             348.97,286.88 361.84,268.01 369.13,251.00
             369.13,251.00 377.00,227.00 377.00,227.00
             372.85,229.29 371.88,231.59 368.83,235.00
             368.83,235.00 355.00,248.91 355.00,248.91
             342.95,260.13 325.53,271.81 311.00,279.69
             292.02,289.98 272.19,298.90 252.00,306.58
             252.00,306.58 214.00,320.31 214.00,320.31
             188.82,331.87 166.51,349.54 152.86,374.00
             148.78,381.31 145.36,389.92 143.15,398.00
             137.55,418.48 137.76,430.23 138.00,451.00
             138.11,460.27 140.84,474.89 143.13,484.00
             156.56,537.48 190.89,575.93 236.00,606.00
             259.12,621.41 284.45,633.72 311.00,641.98
             331.45,648.33 347.84,651.05 369.00,653.17
             369.00,653.17 390.00,655.00 390.00,655.00
             390.00,655.00 412.00,655.00 412.00,655.00
             412.00,655.00 442.00,652.28 442.00,652.28
             492.81,645.65 540.18,626.15 578.00,590.91
             588.77,580.88 599.80,566.30 608.00,554.00
             600.91,578.46 599.62,582.75 586.00,605.00
             594.69,600.92 613.67,581.87 620.00,574.00
             645.11,542.79 659.28,509.19 666.61,470.00
             666.61,470.00 670.04,449.00 670.04,449.00
             670.04,449.00 670.04,441.00 670.04,441.00
             670.91,435.72 671.95,426.91 670.04,422.00
             659.59,453.18 637.33,485.66 612.00,506.54
             598.02,518.06 593.83,519.56 579.00,528.00
             584.94,515.59 589.76,505.37 593.57,492.00
             606.33,447.29 602.64,393.86 577.31,354.00
             557.48,322.81 541.60,314.45 519.29,289.00
             494.85,261.14 482.51,235.71 477.72,199.00
             477.72,199.00 476.00,182.00 476.00,182.00 Z" />
</svg>