<?xml version="1.0" encoding="UTF-8"?>
<svg version="1.1" xmlns="http://www.w3.org/2000/svg" width="600" height="600">
<path d="M0,0 L37,2 L37,4 L52,5 L55,4 L56,6 L72,10 L78,10 L79,12 L103,20 L117,26 L120,26 L120,28 L126,30 L148,42 L163,52 L179,64 L193,76 L197,79 L197,81 L201,83 L211,93 L220,104 L229,115 L243,136 L251,150 L254,154 L264,177 L272,198 L278,220 L283,248 L285,271 L286,275 L286,296 L285,299 L282,328 L277,353 L269,379 L259,403 L247,425 L234,444 L223,458 L209,473 L205,478 L197,485 L187,494 L167,509 L151,519 L133,529 L114,538 L93,546 L67,553 L45,557 L36,558 L27,558 L26,561 L26,559 L6,560 L-29,559 L-58,555 L-82,550 L-109,541 L-127,534 L-128,532 L-134,530 L-153,520 L-174,506 L-187,496 L-201,484 L-224,461 L-235,447 L-246,432 L-256,415 L-258,415 L-259,409 L-267,393 L-271,383 L-271,381 L-274,381 L-273,378 L-281,352 L-285,332 L-288,309 L-289,278 L-287,252 L-282,222 L-282,218 L-280,218 L-279,210 L-270,183 L-262,165 L-251,144 L-244,133 L-236,121 L-226,108 L-215,95 L-208,88 L-202,81 L-194,74 L-183,64 L-167,52 L-148,40 L-130,30 L-109,21 L-106,19 L-103,18 L-92,15 L-68,8 L-54,5 L-48,5 L-48,3 L-50,2 L-42,3 L-23,1 Z " fill="#FDF8ED" transform="translate(302,14)"/>
<path d="M0,0 L49,0 L72,3 L99,9 L128,19 L155,32 L176,45 L188,54 L199,63 L209,72 L219,81 L228,91 L239,104 L251,121 L262,140 L273,163 L281,186 L287,208 L290,227 L292,252 L292,273 L289,303 L284,327 L278,347 L270,366 L262,382 L253,397 L244,409 L236,418 L236,415 L248,394 L256,376 L263,355 L267,336 L269,316 L264,328 L256,343 L248,354 L239,365 L223,381 L208,392 L202,394 L209,376 L215,353 L217,339 L217,304 L214,286 L209,270 L202,254 L193,239 L182,225 L167,210 L159,203 L149,193 L136,176 L126,158 L120,142 L114,117 L109,133 L102,149 L94,162 L85,174 L68,191 L55,200 L41,208 L25,215 L5,221 L-1,222 L-16,222 L-11,218 L-1,209 L10,195 L17,184 L25,168 L29,156 L20,165 L3,178 L-16,189 L-33,197 L-71,211 L-96,221 L-111,229 L-127,241 L-137,251 L-147,265 L-155,282 L-160,299 L-162,314 L-162,341 L-159,360 L-154,378 L-145,399 L-136,414 L-124,430 L-112,443 L-102,452 L-86,464 L-71,473 L-52,483 L-34,490 L-13,496 L12,500 L43,500 L63,497 L94,495 L113,492 L135,486 L157,478 L180,466 L194,456 L196,457 L186,465 L170,476 L153,486 L134,495 L112,503 L84,510 L66,513 L49,515 L6,515 L-24,511 L-48,505 L-72,497 L-96,486 L-113,477 L-131,465 L-143,456 L-157,444 L-177,424 L-188,410 L-199,395 L-210,376 L-220,355 L-227,335 L-232,316 L-236,292 L-237,282 L-237,241 L-233,212 L-228,191 L-221,170 L-211,147 L-200,127 L-187,108 L-178,97 L-166,83 L-151,68 L-140,59 L-130,51 L-109,37 L-87,25 L-63,15 L-42,8 L-15,2 Z " fill="#191718" transform="translate(273,37)"/>
<path d="M0,0 L37,2 L37,4 L52,5 L55,4 L56,6 L72,10 L78,10 L79,12 L103,20 L117,26 L120,26 L120,28 L126,30 L148,42 L163,52 L179,64 L193,76 L197,79 L197,81 L201,83 L211,93 L220,104 L229,115 L243,136 L251,150 L254,154 L264,177 L272,198 L278,220 L283,248 L285,271 L286,275 L286,296 L285,299 L282,328 L277,353 L269,379 L259,403 L247,425 L234,444 L223,458 L209,473 L205,478 L197,485 L187,494 L167,509 L151,519 L133,529 L114,538 L93,546 L67,553 L45,557 L36,558 L27,558 L26,561 L26,559 L6,560 L-29,559 L-58,555 L-82,550 L-109,541 L-127,534 L-128,532 L-134,530 L-153,520 L-174,506 L-187,496 L-201,484 L-224,461 L-235,447 L-246,432 L-256,415 L-258,415 L-259,409 L-267,393 L-271,383 L-271,381 L-274,381 L-273,378 L-281,352 L-285,332 L-288,309 L-289,278 L-287,252 L-282,222 L-282,218 L-280,218 L-279,210 L-270,183 L-262,165 L-251,144 L-244,133 L-236,121 L-226,108 L-215,95 L-208,88 L-202,81 L-194,74 L-183,64 L-167,52 L-148,40 L-130,30 L-109,21 L-106,19 L-103,18 L-92,15 L-68,8 L-54,5 L-48,5 L-48,3 L-50,2 L-42,3 L-23,1 Z M-29,23 L-54,27 L-78,33 L-105,43 L-126,53 L-143,63 L-163,77 L-177,89 L-187,98 L-199,110 L-208,121 L-219,135 L-230,152 L-242,174 L-253,201 L-260,225 L-264,247 L-266,264 L-266,305 L-263,329 L-258,351 L-253,367 L-245,387 L-233,410 L-223,425 L-211,441 L-197,456 L-182,471 L-171,480 L-153,493 L-133,505 L-108,517 L-84,526 L-58,533 L-32,537 L-23,538 L20,538 L45,535 L72,529 L95,522 L118,512 L135,503 L150,493 L166,481 L167,479 L163,481 L147,491 L128,501 L103,510 L79,516 L65,518 L45,519 L63,514 L86,504 L105,493 L121,481 L133,470 L138,465 L146,457 L157,443 L167,428 L173,418 L185,411 L198,400 L213,385 L223,372 L232,357 L239,342 L240,341 L238,359 L233,381 L226,402 L216,423 L206,439 L207,441 L217,430 L229,412 L239,394 L247,375 L254,354 L259,331 L262,309 L263,296 L263,275 L261,250 L258,231 L251,205 L241,179 L230,157 L218,138 L208,125 L197,112 L183,97 L175,90 L162,79 L144,66 L129,57 L106,45 L85,37 L66,31 L38,25 L20,23 Z " fill="#FD8C1F" transform="translate(302,14)"/>
<path d="M0,0 L54,0 L69,36 L88,83 L106,127 L118,157 L118,159 L71,159 L65,146 L61,136 L61,134 L-6,134 L-9,145 L-13,158 L-14,159 L-60,159 L-59,154 L-44,114 L-25,65 L-6,15 Z " fill="#1A191A" transform="translate(347,278)"/>
<path d="M0,0 L23,0 L40,2 L60,7 L77,14 L81,18 L67,44 L63,50 L45,42 L27,38 L19,37 L5,37 L-6,40 L-10,44 L-9,51 L-2,55 L34,63 L55,70 L66,76 L76,85 L82,95 L85,105 L85,120 L82,130 L76,140 L68,148 L56,155 L44,159 L35,161 L26,162 L5,162 L-14,159 L-34,153 L-50,145 L-61,138 L-59,132 L-46,111 L-42,105 L-28,113 L-16,118 L0,122 L7,123 L22,123 L31,120 L34,117 L34,109 L28,104 L18,101 L-19,93 L-34,87 L-43,81 L-50,75 L-57,63 L-59,54 L-59,41 L-55,30 L-49,21 L-40,13 L-24,5 L-8,1 Z " fill="#1A191A" transform="translate(203,277)"/>
<path d="M0,0 L1,0 L6,24 L11,39 L12,42 L10,42 L8,47 L-5,63 L-17,74 L-34,85 L-49,93 L-74,102 L-99,107 L-106,108 L-115,108 L-115,107 L-98,103 L-79,96 L-62,87 L-49,78 L-39,69 L-28,58 L-19,45 L-10,29 L-4,14 Z " fill="#FD8C1D" transform="translate(387,151)"/>
<path d="M0,0 L1,2 L-5,17 L-13,33 L-18,37 L-38,46 L-60,53 L-83,57 L-92,58 L-105,58 L-103,56 L-67,43 L-47,34 L-29,24 L-13,12 L-1,1 Z " fill="#FC911F" transform="translate(302,192)"/>
<path d="M0,0 L2,3 L16,43 L20,54 L20,56 L-20,56 L-17,46 L-2,5 Z " fill="#FE8D1F" transform="translate(374,320)"/>
<path d="M0,0 L2,1 L-8,9 L-24,20 L-41,30 L-60,39 L-82,47 L-89,48 L-88,46 L-78,43 L-79,39 L-95,41 L-104,41 L-100,39 L-81,36 L-59,30 L-37,22 L-14,10 Z M-78,37 Z " fill="#170F13" transform="translate(467,493)"/>
<path d="M0,0 L2,3 L3,10 L0,7 L-9,32 L-17,53 L17,53 L10,33 L8,28 L9,25 L14,37 L20,54 L20,56 L-20,56 L-17,46 L-2,5 Z " fill="#F3AD27" transform="translate(374,320)"/>
<path d="M0,0 L2,1 L-7,17 L-17,31 L-26,41 L-26,38 L-14,17 L-9,6 L-5,6 L-3,1 L-1,2 Z " fill="#1B1417" transform="translate(535,414)"/>
<path d="M0,0 L1,2 L-9,8 L-11,11 L-5,10 L-8,12 L-12,14 L-16,16 L-44,21 L-53,21 L-53,20 L-36,16 L-17,9 Z " fill="#FC8518" transform="translate(325,238)"/>
<path d="M0,0 L2,0 L11,14 L23,30 L39,47 L50,58 L61,67 L73,76 L71,77 L60,69 L46,57 L26,37 L15,23 L4,8 Z " fill="#0C050F" transform="translate(70,424)"/>
<path d="M0,0 L2,1 L-8,9 L-24,20 L-27,22 L-34,23 L-54,31 L-57,30 L-45,25 L-29,18 L-11,8 Z " fill="#0B0510" transform="translate(467,493)"/>
<path d="M0,0 L2,0 L6,10 L6,12 L-41,12 L-44,6 L-44,4 L-42,4 L-41,10 L3,9 Z " fill="#292522" transform="translate(459,425)"/>
<path d="M0,0 L57,0 L58,2 L63,3 L63,4 L53,4 L30,2 L-7,2 L-7,1 Z " fill="#FD7A0D" transform="translate(282,16)"/>
<path d="M0,0 L5,2 L20,15 L34,28 L41,36 L47,43 L46,45 L34,32 L28,26 L28,24 L25,23 L25,21 L21,19 L10,9 L0,1 Z " fill="#130912" transform="translate(459,91)"/>
<path d="M0,0 L4,1 L-8,4 L-30,7 L-43,7 L-41,5 L-27,2 L-23,1 L-23,3 L-10,2 Z " fill="#FD6E0E" transform="translate(240,243)"/>
<path d="M0,0 L2,1 L-5,5 L-3,7 L-14,10 L-28,13 L-31,14 L-40,14 L-40,13 L-23,9 L-4,2 Z " fill="#F3A82A" transform="translate(312,245)"/>
<path d="M0,0 L1,0 L2,39 L4,36 L4,50 L3,50 L2,57 L1,57 L0,48 L-1,17 Z " fill="#FA9331" transform="translate(14,275)"/>
<path d="M0,0 L7,6 L18,17 L26,23 L22,24 L9,12 L0,3 Z " fill="#FA8520" transform="translate(88,482)"/>
<path d="M0,0 L7,6 L14,13 L28,24 L37,31 L34,31 L23,23 L12,14 L0,2 Z " fill="#090807" transform="translate(151,471)"/>
<path d="M0,0 L1,0 L1,18 L-2,26 L-7,44 L-9,46 L-7,36 L-2,13 Z " fill="#EEA625" transform="translate(562,332)"/>
<path d="M0,0 L5,0 L7,1 L28,1 L29,4 L8,4 L0,3 Z " fill="#2A2726" transform="translate(200,435)"/>
<path d="M0,0 L2,1 L-3,11 L-1,12 L-13,26 L-13,23 L-1,2 Z " fill="#0E0610" transform="translate(522,429)"/>
<path d="M0,0 L1,0 L2,5 L3,5 L3,34 L2,34 L1,27 L0,27 Z " fill="#23211F" transform="translate(491,339)"/>
<path d="M0,0 L2,2 L6,24 L6,29 L4,25 L4,22 L2,22 L0,12 Z " fill="#FC7F16" transform="translate(18,340)"/>
<path d="M0,0 L14,1 L30,3 L30,4 L10,4 L1,2 Z " fill="#FD7E15" transform="translate(246,567)"/>
<path d="M0,0 L2,1 L-8,9 L-22,19 L-23,15 L-8,6 Z " fill="#190B0E" transform="translate(467,493)"/>
<path d="M0,0 L1,4 L-1,18 L-3,14 L-10,26 L-11,24 L-2,5 Z " fill="#F2B72A" transform="translate(542,351)"/>
<path d="M0,0 L29,0 L29,1 L16,2 L15,3 L-2,3 Z " fill="#F5EFE6" transform="translate(287,535)"/>
<path d="M0,0 L1,2 L-5,17 L-8,20 L-6,11 L-9,9 Z " fill="#F5A725" transform="translate(302,192)"/>
<path d="M0,0 L11,1 L11,2 L-6,4 L-21,4 L-21,3 L-9,1 Z " fill="#FBBE2B" transform="translate(361,530)"/>
<path d="M0,0 L1,0 L1,5 L-1,6 L-45,5 L-45,4 L-1,4 Z " fill="#010101" transform="translate(333,431)"/>
<path d="M0,0 L2,1 L-7,17 L-13,25 L-13,22 L-9,15 L-7,14 L-5,9 L-3,5 L-5,4 L-2,1 L-1,2 Z " fill="#0F0812" transform="translate(535,414)"/>
<path d="M0,0 L3,3 L11,21 L16,31 L15,33 L8,21 L4,12 L4,10 L2,10 L1,4 Z " fill="#F5B027" transform="translate(50,386)"/>
<path d="M0,0 L1,4 L-16,20 L-20,23 L-18,19 L-2,3 Z " fill="#F6AB25" transform="translate(516,396)"/>
<path d="M0,0 L6,1 L18,9 L19,12 L14,10 L0,1 Z " fill="#FC8219" transform="translate(444,55)"/>
<path d="M0,0 L3,3 L4,9 L4,26 L3,26 L0,6 Z " fill="#FC7F15" transform="translate(580,246)"/>
<path d="M0,0 L1,0 L2,13 L-1,13 L-4,20 L-5,17 Z M-1,13 Z " fill="#F6B228" transform="translate(387,151)"/>
<path d="M0,0 L5,5 L13,14 L10,15 L1,5 Z " fill="#FB811A" transform="translate(72,464)"/>
<path d="M0,0 L0,3 L-2,9 L-6,13 L-9,16 L-8,10 L-2,1 Z " fill="#FD8217" transform="translate(62,143)"/>
<path d="M0,0 L1,0 L1,10 L-1,26 L-2,26 L-3,13 L-1,9 Z " fill="#F9912E" transform="translate(585,316)"/>
<path d="M0,0 L4,1 L8,3 L-3,3 L-12,2 L-12,1 Z " fill="#FA9331" transform="translate(276,570)"/>
<path d="M0,0 L1,0 L1,17 L-2,18 L-2,9 Z " fill="#222121" transform="translate(110,334)"/>
<path d="M0,0 L7,6 L10,9 L10,11 L6,9 L0,3 Z " fill="#FD7E12" transform="translate(88,482)"/>
<path d="M0,0 L9,1 L15,3 L15,4 L6,4 L0,1 Z " fill="#FE7911" transform="translate(219,561)"/>
<path d="M0,0 L1,0 L2,9 L2,20 L1,20 L0,14 L-1,10 Z " fill="#FA912F" transform="translate(584,262)"/>
<path d="M0,0 L2,0 L2,2 L6,4 L11,10 L10,12 L1,3 Z " fill="#F1AC25" transform="translate(492,118)"/>
<path d="M0,0 L4,1 L7,3 L-1,3 L-6,4 L-5,1 Z " fill="#272322" transform="translate(195,278)"/>
<path d="M0,0 L2,1 L-5,9 L-9,10 L-7,6 Z " fill="#F8AF26" transform="translate(346,222)"/>
<path d="M0,0 L1,2 L-1,7 L-4,7 L-7,10 L-9,9 Z " fill="#FAC82B" transform="translate(302,192)"/>
<path d="M0,0 L3,1 L2,3 L-2,4 L-9,4 L-6,2 Z " fill="#FE7F17" transform="translate(393,557)"/>
<path d="M0,0 L10,2 L12,4 L5,4 L0,1 Z " fill="#FD7F14" transform="translate(206,557)"/>
<path d="M0,0 L4,2 L12,9 L9,9 L0,2 Z " fill="#F2B128" transform="translate(120,485)"/>
<path d="M0,0 L2,1 L-7,7 L-9,6 L-5,2 Z " fill="#0B050B" transform="translate(484,424)"/>
<path d="M0,0 L5,1 L5,3 L-4,3 L-7,1 Z " fill="#FDEEDD" transform="translate(226,247)"/>
<path d="M0,0 L11,0 L11,2 L13,3 L4,2 Z " fill="#FD7D11" transform="translate(356,22)"/>
<path d="M0,0 L4,3 L-11,3 L-11,2 Z " fill="#EE9D33" transform="translate(351,531)"/>
<path d="M0,0 L5,5 L10,11 L7,11 L0,2 Z " fill="#140A10" transform="translate(89,450)"/>
<path d="M0,0 L10,1 L9,4 L1,3 Z " fill="#F1ECE4" transform="translate(209,332)"/>
<path d="M0,0 L4,1 L7,7 L4,7 L0,2 Z " fill="#221F1E" transform="translate(152,348)"/>
<path d="M0,0 L2,1 L1,6 L-1,6 L-2,9 L-3,7 Z " fill="#131111" transform="translate(345,284)"/>
<path d="M0,0 L9,0 L9,3 L2,3 Z " fill="#F2EDE4" transform="translate(224,275)"/>
<path d="M0,0 L1,3 L-2,10 L-3,10 L-2,1 Z " fill="#FD8017" transform="translate(34,196)"/>
<path d="M0,0 L8,2 L8,3 L-5,3 L-3,1 Z " fill="#F88B14" transform="translate(202,247)"/>
<path d="M0,0 L2,4 L3,11 L0,11 L-1,5 Z " fill="#FA8C2B" transform="translate(575,218)"/>
<path d="M0,0 L3,1 L5,5 L5,10 L2,6 Z " fill="#FD8015" transform="translate(548,159)"/>
<path d="M0,0 L5,0 L2,3 L-4,5 L-3,2 Z " fill="#FD8218" transform="translate(168,46)"/>
<path d="M0,0 L4,2 L8,6 L3,5 L0,2 Z " fill="#FD8016" transform="translate(106,500)"/>
<path d="M0,0 L1,3 L-5,8 L-7,7 L-4,6 L-2,2 Z " fill="#FD7D11" transform="translate(511,483)"/>
<path d="M0,0 L8,1 L7,4 L-2,2 Z " fill="#EEEAE3" transform="translate(242,340)"/>
<path d="M0,0 L7,0 L9,1 L9,4 L0,1 Z " fill="#201F20" transform="translate(271,290)"/>
<path d="M0,0 L6,1 L9,4 L7,5 L0,1 Z " fill="#FD7E13" transform="translate(433,49)"/>
<path d="M0,0 L3,0 L4,2 L8,4 L-1,5 Z " fill="#F69430" transform="translate(354,18)"/>
<path d="M0,0 L3,1 L4,7 L1,8 Z " fill="#F3EFE7" transform="translate(112,389)"/>
<path d="M0,0 L8,0 L8,2 L10,3 L2,2 Z " fill="#FD7D11" transform="translate(377,27)"/>
<path d="M0,0 L2,0 L0,4 L-5,5 Z " fill="#FC7F17" transform="translate(473,516)"/>
<path d="M0,0 L2,1 L-3,8 L-4,4 L-4,2 Z " fill="#F2EAE0" transform="translate(285,227)"/>
<path d="M0,0 L2,4 L1,8 L-2,7 L-1,1 Z " fill="#FB8F2A" transform="translate(37,186)"/>
<path d="M0,0 L1,0 L1,7 L0,7 Z " fill="#ED8D2F" transform="translate(12,313)"/>
<path d="M0,0 L1,0 L1,5 L0,5 Z " fill="#EA8C31" transform="translate(12,279)"/>
<path d="M0,0 L1,4 Z " fill="#EB882C" transform="translate(12,304)"/>
<path d="M0,0 L4,1 Z " fill="#EC8B2B" transform="translate(219,24)"/>
<path d="M0,0 L3,1 Z " fill="#EF8D2F" transform="translate(319,574)"/>
<path d="M0,0 L2,0 L1,2 Z " fill="#EF8D2B" transform="translate(269,573)"/>
<path d="M0,0 L3,1 Z " fill="#E9892A" transform="translate(397,559)"/>
<path d="M0,0 Z " fill="#ED8929" transform="translate(36,411)"/>
<path d="M0,0 Z " fill="#EA8D2E" transform="translate(12,323)"/>
<path d="M0,0 L1,2 L-1,1 Z " fill="#ED8E2F" transform="translate(13,268)"/>
<path d="M0,0 Z " fill="#EE8C2E" transform="translate(585,255)"/>
<path d="M0,0 L2,1 L0,2 Z " fill="#E98A30" transform="translate(28,200)"/>
<path d="M0,0 L2,1 Z " fill="#EE8C2B" transform="translate(279,574)"/>
<path d="M0,0 L2,1 Z " fill="#ED8C2C" transform="translate(333,573)"/>
<path d="M0,0 L2,1 Z " fill="#ED8B2C" transform="translate(224,567)"/>
<path d="M0,0 Z " fill="#ED8C2C" transform="translate(222,565)"/>
<path d="M0,0 Z " fill="#EC8C2B" transform="translate(112,509)"/>
<path d="M0,0 L2,1 Z " fill="#E98A2C" transform="translate(100,501)"/>
<path d="M0,0 Z " fill="#ED8B2B" transform="translate(52,441)"/>
<path d="M0,0 Z " fill="#EB8A29" transform="translate(48,434)"/>
<path d="M0,0 Z " fill="#E88728" transform="translate(555,428)"/>
<path d="M0,0 Z " fill="#EC8B2E" transform="translate(576,379)"/>
<path d="M0,0 Z " fill="#EB8C2C" transform="translate(22,374)"/>
<path d="M0,0 Z " fill="#E98728" transform="translate(20,366)"/>
<path d="M0,0 Z " fill="#EB8C2F" transform="translate(14,336)"/>
<path d="M0,0 Z " fill="#EB8B2F" transform="translate(12,296)"/>
<path d="M0,0 Z " fill="#E88A2F" transform="translate(12,285)"/>
<path d="M0,0 Z " fill="#EA8E30" transform="translate(12,276)"/>
<path d="M0,0 Z " fill="#EC8D30" transform="translate(12,272)"/>
<path d="M0,0 Z " fill="#EC8C2D" transform="translate(582,240)"/>
<path d="M0,0 Z " fill="#EF892B" transform="translate(36,184)"/>
<path d="M0,0 Z " fill="#EC8728" transform="translate(563,182)"/>
<path d="M0,0 Z " fill="#EC8B2E" transform="translate(46,160)"/>
<path d="M0,0 Z " fill="#EB8827" transform="translate(546,150)"/>
<path d="M0,0 Z " fill="#EF8A2C" transform="translate(76,119)"/>
<path d="M0,0 Z " fill="#E8892D" transform="translate(84,106)"/>
<path d="M0,0 L2,1 Z " fill="#E88B2E" transform="translate(123,72)"/>
<path d="M0,0 L2,1 Z " fill="#EA8A2A" transform="translate(132,66)"/>
<path d="M0,0 L2,1 Z " fill="#E98C2B" transform="translate(426,42)"/>
<path d="M0,0 L2,1 Z " fill="#E98828" transform="translate(402,32)"/>
<path d="M0,0 L2,1 Z " fill="#EA8A2B" transform="translate(345,16)"/>
<path d="M0,0 L2,1 Z " fill="#EF8A27" transform="translate(257,16)"/>
<path d="M0,0 Z " fill="#EF8F2B" transform="translate(324,574)"/>
<path d="M0,0 Z " fill="#EE8D2D" transform="translate(295,574)"/>
<path d="M0,0 Z " fill="#EF8D2D" transform="translate(274,574)"/>
<path d="M0,0 Z " fill="#EE8E2B" transform="translate(268,574)"/>
<path d="M0,0 Z " fill="#ED8C2C" transform="translate(345,572)"/>
<path d="M0,0 Z " fill="#EF8A2C" transform="translate(342,572)"/>
<path d="M0,0 Z " fill="#EE8929" transform="translate(339,572)"/>
<path d="M0,0 Z " fill="#EF8C29" transform="translate(348,571)"/>
<path d="M0,0 Z " fill="#F08F32" transform="translate(244,570)"/>
<path d="M0,0 Z " fill="#EE892B" transform="translate(376,567)"/>
<path d="M0,0 Z " fill="#EC8D31" transform="translate(371,567)"/>
<path d="M0,0 Z " fill="#EF8C2E" transform="translate(369,567)"/>
<path d="M0,0 Z " fill="#EE8929" transform="translate(231,567)"/>
<path d="M0,0 Z " fill="#ED8C29" transform="translate(227,566)"/>
<path d="M0,0 Z " fill="#ED8E2F" transform="translate(380,565)"/>
<path d="M0,0 Z " fill="#F18C2D" transform="translate(224,565)"/>
<path d="M0,0 Z " fill="#EE892C" transform="translate(213,562)"/>
<path d="M0,0 Z " fill="#E48A2F" transform="translate(411,557)"/>
<path d="M0,0 Z " fill="#EC8C2F" transform="translate(196,557)"/>
<path d="M0,0 Z " fill="#EC8B29" transform="translate(194,556)"/>
<path d="M0,0 Z " fill="#ED8B2C" transform="translate(190,556)"/>
<path d="M0,0 Z " fill="#EA8C2F" transform="translate(410,555)"/>
<path d="M0,0 Z " fill="#EE8B2E" transform="translate(191,555)"/>
<path d="M0,0 Z " fill="#EB8B2B" transform="translate(411,554)"/>
<path d="M0,0 Z " fill="#EE8B2B" transform="translate(419,551)"/>
<path d="M0,0 Z " fill="#EB8A2C" transform="translate(179,550)"/>
<path d="M0,0 Z " fill="#EC8E2E" transform="translate(424,549)"/>
<path d="M0,0 Z " fill="#EB8C2F" transform="translate(172,547)"/>
<path d="M0,0 Z " fill="#EE8A29" transform="translate(435,543)"/>
<path d="M0,0 Z " fill="#E9892E" transform="translate(164,543)"/>
<path d="M0,0 Z " fill="#EB8E2F" transform="translate(156,539)"/>
<path d="M0,0 Z " fill="#EB8C2C" transform="translate(451,535)"/>
<path d="M0,0 Z " fill="#EA8A2E" transform="translate(149,535)"/>
<path d="M0,0 Z " fill="#EC8E2F" transform="translate(452,534)"/>
<path d="M0,0 Z " fill="#EB8B2D" transform="translate(148,534)"/>
<path d="M0,0 Z " fill="#ED8B2B" transform="translate(455,532)"/>
<path d="M0,0 Z " fill="#E88B2C" transform="translate(466,527)"/>
<path d="M0,0 Z " fill="#EC8A2A" transform="translate(137,527)"/>
<path d="M0,0 Z " fill="#E9892A" transform="translate(134,525)"/>
<path d="M0,0 Z " fill="#EA842B" transform="translate(475,519)"/>
<path d="M0,0 Z " fill="#EE8B29" transform="translate(487,510)"/>
<path d="M0,0 Z " fill="#EF8F2B" transform="translate(488,509)"/>
<path d="M0,0 Z " fill="#ED892B" transform="translate(111,508)"/>
<path d="M0,0 Z " fill="#EA8D2B" transform="translate(110,507)"/>
<path d="M0,0 Z " fill="#EF8C27" transform="translate(491,506)"/>
<path d="M0,0 Z " fill="#EC8B2D" transform="translate(108,506)"/>
<path d="M0,0 Z " fill="#ED8A2A" transform="translate(105,503)"/>
<path d="M0,0 Z " fill="#EC8B2D" transform="translate(104,502)"/>
<path d="M0,0 Z " fill="#E98B2A" transform="translate(103,501)"/>
<path d="M0,0 Z " fill="#EC8A2A" transform="translate(102,500)"/>
<path d="M0,0 Z " fill="#ED8B28" transform="translate(499,499)"/>
<path d="M0,0 Z " fill="#EE8B2A" transform="translate(101,499)"/>
<path d="M0,0 Z " fill="#EA8A2F" transform="translate(100,498)"/>
<path d="M0,0 Z " fill="#EB8A2D" transform="translate(512,486)"/>
<path d="M0,0 Z " fill="#EC8D30" transform="translate(85,484)"/>
<path d="M0,0 Z " fill="#EC892A" transform="translate(81,479)"/>
<path d="M0,0 Z " fill="#E9892C" transform="translate(79,479)"/>
<path d="M0,0 Z " fill="#E78C2E" transform="translate(77,477)"/>
<path d="M0,0 Z " fill="#EE8D2C" transform="translate(77,475)"/>
<path d="M0,0 Z " fill="#EA8928" transform="translate(74,471)"/>
<path d="M0,0 Z " fill="#EA8929" transform="translate(527,470)"/>
<path d="M0,0 Z " fill="#EC8826" transform="translate(73,470)"/>
<path d="M0,0 Z " fill="#EC8929" transform="translate(72,469)"/>
<path d="M0,0 Z " fill="#E98B2E" transform="translate(68,466)"/>
<path d="M0,0 Z " fill="#E2882D" transform="translate(60,461)"/>
<path d="M0,0 Z " fill="#EA8729" transform="translate(65,460)"/>
<path d="M0,0 Z " fill="#ED8B2D" transform="translate(538,456)"/>
<path d="M0,0 Z " fill="#E9892C" transform="translate(539,455)"/>
<path d="M0,0 Z " fill="#EC8A2A" transform="translate(60,453)"/>
<path d="M0,0 Z " fill="#EC8B2C" transform="translate(54,445)"/>
<path d="M0,0 Z " fill="#EC8C2D" transform="translate(552,438)"/>
<path d="M0,0 Z " fill="#EA8A2D" transform="translate(554,431)"/>
<path d="M0,0 Z " fill="#EC8B28" transform="translate(41,422)"/>
<path d="M0,0 Z " fill="#ED8A2C" transform="translate(561,417)"/>
<path d="M0,0 Z " fill="#EA8B2C" transform="translate(562,416)"/>
<path d="M0,0 Z " fill="#EC8B2F" transform="translate(37,415)"/>
<path d="M0,0 Z " fill="#EA8726" transform="translate(563,412)"/>
<path d="M0,0 Z " fill="#EA8727" transform="translate(34,407)"/>
<path d="M0,0 Z " fill="#EE8D2F" transform="translate(32,404)"/>
<path d="M0,0 Z " fill="#EC8E2E" transform="translate(30,399)"/>
<path d="M0,0 Z " fill="#EC8D31" transform="translate(29,397)"/>
<path d="M0,0 Z " fill="#EC8C2E" transform="translate(28,396)"/>
<path d="M0,0 Z " fill="#EC8D2E" transform="translate(571,394)"/>
<path d="M0,0 Z " fill="#E98B2D" transform="translate(25,388)"/>
<path d="M0,0 Z " fill="#EC8C30" transform="translate(24,382)"/>
<path d="M0,0 Z " fill="#EB8A2E" transform="translate(23,378)"/>
<path d="M0,0 Z " fill="#E88D2F" transform="translate(21,378)"/>
<path d="M0,0 Z " fill="#EA8C30" transform="translate(21,373)"/>
<path d="M0,0 Z " fill="#EE8B2B" transform="translate(21,371)"/>
<path d="M0,0 Z " fill="#EB8526" transform="translate(579,367)"/>
<path d="M0,0 Z " fill="#EA8A2C" transform="translate(18,359)"/>
<path d="M0,0 Z " fill="#EC8A2C" transform="translate(13,327)"/>
<path d="M0,0 Z " fill="#EB8E30" transform="translate(587,322)"/>
<path d="M0,0 Z " fill="#EA8B2E" transform="translate(587,319)"/>
<path d="M0,0 Z " fill="#EA8B2C" transform="translate(12,311)"/>
<path d="M0,0 Z " fill="#E9872A" transform="translate(12,309)"/>
<path d="M0,0 Z " fill="#EA8A2D" transform="translate(12,302)"/>
<path d="M0,0 Z " fill="#EA8A2E" transform="translate(12,294)"/>
<path d="M0,0 Z " fill="#EB8D32" transform="translate(12,288)"/>
<path d="M0,0 Z " fill="#EC8C2E" transform="translate(587,277)"/>
<path d="M0,0 Z " fill="#EB8E2F" transform="translate(587,274)"/>
<path d="M0,0 Z " fill="#EE8C2B" transform="translate(13,271)"/>
<path d="M0,0 Z " fill="#ED8D30" transform="translate(13,266)"/>
<path d="M0,0 Z " fill="#EF8F2E" transform="translate(586,264)"/>
<path d="M0,0 Z " fill="#EE8F31" transform="translate(13,259)"/>
<path d="M0,0 Z " fill="#EB8E30" transform="translate(17,241)"/>
<path d="M0,0 Z " fill="#EC8F31" transform="translate(20,228)"/>
<path d="M0,0 Z " fill="#ED8C2E" transform="translate(21,227)"/>
<path d="M0,0 Z " fill="#EC8828" transform="translate(578,225)"/>
<path d="M0,0 Z " fill="#EB8B2D" transform="translate(578,223)"/>
<path d="M0,0 Z " fill="#E78B2D" transform="translate(578,218)"/>
<path d="M0,0 Z " fill="#E8872B" transform="translate(578,215)"/>
<path d="M0,0 Z " fill="#E78D30" transform="translate(28,203)"/>
<path d="M0,0 Z " fill="#EB8B2C" transform="translate(571,202)"/>
<path d="M0,0 Z " fill="#E88C2F" transform="translate(28,198)"/>
<path d="M0,0 Z " fill="#EC8E30" transform="translate(30,197)"/>
<path d="M0,0 Z " fill="#ED8E2E" transform="translate(31,195)"/>
<path d="M0,0 Z " fill="#EA8A2F" transform="translate(28,195)"/>
<path d="M0,0 Z " fill="#EB8C30" transform="translate(29,194)"/>
<path d="M0,0 Z " fill="#F18E2D" transform="translate(32,193)"/>
<path d="M0,0 Z " fill="#EC8A2D" transform="translate(30,192)"/>
<path d="M0,0 Z " fill="#EC8A2A" transform="translate(562,179)"/>
<path d="M0,0 Z " fill="#EB892D" transform="translate(44,168)"/>
<path d="M0,0 Z " fill="#ED8C2D" transform="translate(45,165)"/>
<path d="M0,0 Z " fill="#EC8C2A" transform="translate(44,164)"/>
<path d="M0,0 Z " fill="#EE8A2B" transform="translate(47,162)"/>
<path d="M0,0 Z " fill="#EA8B2C" transform="translate(44,162)"/>
<path d="M0,0 Z " fill="#EC8B2E" transform="translate(52,153)"/>
<path d="M0,0 Z " fill="#EA8E2E" transform="translate(52,147)"/>
<path d="M0,0 Z " fill="#E7892B" transform="translate(53,144)"/>
<path d="M0,0 Z " fill="#E98A2E" transform="translate(60,139)"/>
<path d="M0,0 Z " fill="#EA8B2A" transform="translate(537,136)"/>
<path d="M0,0 Z " fill="#EC8932" transform="translate(531,128)"/>
<path d="M0,0 Z " fill="#EB8726" transform="translate(72,125)"/>
<path d="M0,0 Z " fill="#EB892C" transform="translate(523,118)"/>
<path d="M0,0 Z " fill="#E78A2F" transform="translate(76,113)"/>
<path d="M0,0 Z " fill="#E5882B" transform="translate(77,112)"/>
<path d="M0,0 Z " fill="#E98324" transform="translate(515,109)"/>
<path d="M0,0 Z " fill="#EA8C2D" transform="translate(92,99)"/>
<path d="M0,0 Z " fill="#E98C2E" transform="translate(96,97)"/>
<path d="M0,0 Z " fill="#EB8B2C" transform="translate(102,91)"/>
<path d="M0,0 Z " fill="#E78A2C" transform="translate(101,88)"/>
<path d="M0,0 Z " fill="#ED8D25" transform="translate(108,86)"/>
<path d="M0,0 Z " fill="#EA8927" transform="translate(491,85)"/>
<path d="M0,0 Z " fill="#E78B2F" transform="translate(113,81)"/>
<path d="M0,0 Z " fill="#EB8A2C" transform="translate(487,80)"/>
<path d="M0,0 Z " fill="#EC8A27" transform="translate(485,80)"/>
<path d="M0,0 Z " fill="#E78B2E" transform="translate(110,80)"/>
<path d="M0,0 Z " fill="#EE8926" transform="translate(482,78)"/>
<path d="M0,0 Z " fill="#EC892B" transform="translate(135,64)"/>
<path d="M0,0 Z " fill="#E98B2D" transform="translate(142,57)"/>
<path d="M0,0 Z " fill="#F38D34" transform="translate(451,56)"/>
<path d="M0,0 Z " fill="#EF8B2B" transform="translate(148,56)"/>
<path d="M0,0 Z " fill="#EB8B29" transform="translate(156,50)"/>
<path d="M0,0 Z " fill="#ED8A27" transform="translate(161,48)"/>
<path d="M0,0 Z " fill="#EE8C2A" transform="translate(166,45)"/>
<path d="M0,0 Z " fill="#EF8D2B" transform="translate(171,43)"/>
<path d="M0,0 Z " fill="#ED8A29" transform="translate(176,41)"/>
<path d="M0,0 Z " fill="#ED8B2A" transform="translate(177,40)"/>
<path d="M0,0 Z " fill="#EA882A" transform="translate(414,36)"/>
<path d="M0,0 Z " fill="#EB8B2B" transform="translate(411,35)"/>
<path d="M0,0 Z " fill="#EB8F30" transform="translate(188,35)"/>
<path d="M0,0 Z " fill="#E78A2D" transform="translate(405,32)"/>
<path d="M0,0 Z " fill="#EB8B2A" transform="translate(193,32)"/>
<path d="M0,0 Z " fill="#E98D2E" transform="translate(191,32)"/>
<path d="M0,0 Z " fill="#EC8C2A" transform="translate(205,29)"/>
<path d="M0,0 Z " fill="#F08B28" transform="translate(392,28)"/>
<path d="M0,0 Z " fill="#EC8B2A" transform="translate(206,28)"/>
<path d="M0,0 Z " fill="#E88E2A" transform="translate(387,26)"/>
<path d="M0,0 Z " fill="#EB8B2B" transform="translate(383,25)"/>
<path d="M0,0 Z " fill="#ED8B2B" transform="translate(217,25)"/>
<path d="M0,0 Z " fill="#ED8C2A" transform="translate(215,25)"/>
<path d="M0,0 Z " fill="#EF8C27" transform="translate(230,21)"/>
<path d="M0,0 Z " fill="#EE8D2D" transform="translate(364,20)"/>
<path d="M0,0 Z " fill="#EF8F2C" transform="translate(360,19)"/>
<path d="M0,0 Z " fill="#EF8D2B" transform="translate(272,14)"/>
</svg>
